<svg width="36" height="36" viewBox="0 0 36 36" fill="none" xmlns="http://www.w3.org/2000/svg">
<path d="M11.7812 2.94507V7.36265" stroke="#1F1F1F" stroke-width="2.20879" stroke-miterlimit="10" stroke-linecap="round" stroke-linejoin="round"/>
<path d="M23.5625 2.94507V7.36265" stroke="#1F1F1F" stroke-width="2.20879" stroke-miterlimit="10" stroke-linecap="round" stroke-linejoin="round"/>
<path d="M5.15625 13.3853H30.1892" stroke="#1F1F1F" stroke-width="2.20879" stroke-miterlimit="10" stroke-linecap="round" stroke-linejoin="round"/>
<path d="M28.2837 23.2217L23.071 28.4345C22.8648 28.6406 22.6733 29.0235 22.6292 29.3032L22.3494 31.2912C22.2463 32.0127 22.747 32.5134 23.4685 32.4103L25.4564 32.1305C25.7362 32.0863 26.1338 31.8949 26.3252 31.6887L31.538 26.476C32.4362 25.5778 32.8633 24.5323 31.538 23.207C30.2274 21.8965 29.1819 22.3235 28.2837 23.2217Z" stroke="#1F1F1F" stroke-width="2.20879" stroke-miterlimit="10" stroke-linecap="round" stroke-linejoin="round"/>
<path d="M27.5391 23.9727C27.9808 25.563 29.2177 26.7999 30.8081 27.2417" stroke="#1F1F1F" stroke-width="2.20879" stroke-miterlimit="10" stroke-linecap="round" stroke-linejoin="round"/>
<path d="M17.6668 32.3956H11.7767C6.62285 32.3956 4.41406 29.4505 4.41406 25.0329V12.5164C4.41406 8.09886 6.62285 5.15381 11.7767 5.15381H23.5569C28.7108 5.15381 30.9196 8.09886 30.9196 12.5164V17.6703" stroke="#1F1F1F" stroke-width="2.20879" stroke-miterlimit="10" stroke-linecap="round" stroke-linejoin="round"/>
<path d="M17.6657 20.1736H17.6789" stroke="#1F1F1F" stroke-width="2.94506" stroke-linecap="round" stroke-linejoin="round"/>
<path d="M12.2126 20.1736H12.2258" stroke="#1F1F1F" stroke-width="2.94506" stroke-linecap="round" stroke-linejoin="round"/>
<path d="M12.2126 24.5912H12.2258" stroke="#1F1F1F" stroke-width="2.94506" stroke-linecap="round" stroke-linejoin="round"/>
</svg>
