<svg width="518" height="416" viewBox="0 0 518 416" fill="none" xmlns="http://www.w3.org/2000/svg">
<path d="M233.382 126.93C232.659 119.79 231.724 112.693 230.641 105.618C229.557 98.5417 228.325 91.5084 226.88 84.4963C226.157 80.9902 222.97 67.0723 222.12 63.6088C220.441 56.6604 218.678 49.7546 216.914 42.8275C216.744 42.19 217.148 41.5313 217.785 41.3826C218.38 41.2338 218.996 41.5738 219.209 42.1475C221.567 48.9471 223.544 55.8742 225.243 62.865C226.093 66.3711 226.837 69.8771 227.538 73.4044C228.24 76.9317 228.835 80.4803 229.408 84.0288C230.556 91.1259 231.512 98.2654 232.234 105.405C232.957 112.545 233.424 119.727 233.722 126.888C233.722 126.973 233.658 127.058 233.573 127.058C233.467 127.058 233.382 126.994 233.382 126.93Z" fill="#60E5AE"/>
<path d="M254.781 111.908C255.036 107.212 255.44 102.537 256.056 97.8623C256.672 93.1876 257.48 88.5554 258.436 83.9232C259.392 79.3122 260.455 74.7012 261.921 70.1965C263.387 65.713 265.002 61.272 266.999 56.9797C267.276 56.3848 267.998 56.1298 268.593 56.406C269.145 56.661 269.4 57.2985 269.23 57.8509C267.828 62.2919 266.319 66.6904 264.959 71.1527C263.599 75.5937 262.155 80.0134 260.922 84.5181C259.69 89.0016 258.606 93.5489 257.629 98.1173C256.651 102.686 255.78 107.297 255.1 111.929C255.079 112.014 255.015 112.078 254.909 112.057C254.845 112.078 254.781 111.993 254.781 111.908Z" fill="#84CC16"/>
<path d="M206.168 112.758C203.193 105.299 199.815 98.0535 195.969 91.0839C194.035 87.5991 191.932 84.2205 189.913 80.7995C187.894 77.3784 185.769 74.0211 183.708 70.6001C183.368 70.0264 183.56 69.3039 184.112 68.9639C184.622 68.6452 185.281 68.7727 185.642 69.2189C188.234 72.3425 190.508 75.6998 192.633 79.1421C194.758 82.5844 196.543 86.2392 198.221 89.9152C201.621 97.2673 204.383 104.874 206.444 112.651C206.466 112.736 206.423 112.821 206.338 112.843C206.274 112.885 206.211 112.843 206.168 112.758Z" fill="#4D93FC"/>
<path d="M269.763 123.933C271.697 117.92 274.013 112.013 276.775 106.318C279.538 100.623 282.704 95.0986 286.231 89.8077C287.995 87.1728 289.822 84.5592 291.798 82.0519C293.753 79.5445 295.814 77.1009 297.981 74.7636C302.295 70.0889 307.012 65.7541 312.112 61.9506C312.643 61.5469 313.387 61.6531 313.791 62.1843C314.152 62.673 314.088 63.3743 313.642 63.778C309.031 68.0065 304.547 72.3412 300.34 76.9097C296.112 81.4782 292.074 86.2379 288.356 91.2526C284.616 96.2673 281.28 101.558 278.22 107.019C275.16 112.501 272.44 118.154 270.103 124.018C270.061 124.103 269.976 124.146 269.891 124.103C269.784 124.103 269.742 124.018 269.763 123.933Z" fill="#E343E6"/>
<path d="M201.572 139.509C198.151 134.494 194.369 129.735 190.331 125.23C186.294 120.725 181.981 116.497 177.412 112.587C172.822 108.677 167.957 105.15 163.006 101.75C158.055 98.3501 152.87 95.2903 147.6 92.3792C147.027 92.0605 146.814 91.338 147.133 90.7431C147.43 90.2119 148.089 89.9781 148.663 90.2331C154.315 92.6555 159.67 95.7153 164.79 99.1151C169.911 102.515 174.65 106.488 179.133 110.696C183.596 114.903 187.782 119.429 191.585 124.21C195.389 129.012 198.81 134.091 201.891 139.339C201.933 139.424 201.912 139.509 201.827 139.551C201.721 139.615 201.636 139.573 201.572 139.509Z" fill="#4D93FC"/>
<path d="M333.746 36.0274L331.281 45.8656L337.996 53.4514L327.881 54.1526L322.739 62.8646L318.957 53.4726L309.055 51.284L316.832 44.7819L315.854 34.6887L324.46 40.0647L333.746 36.0274Z" fill="#E343E6"/>
<path d="M228.073 35.178L214.899 31.1194L204.083 39.6827L203.849 25.8922L192.375 18.264L205.422 13.7805L209.14 0.5L217.406 11.5281L231.196 10.9544L223.271 22.2375L228.073 35.178Z" fill="#60E5AE"/>
<path d="M120.342 70.1532L130.541 72.9156L138.594 66.0735L139.126 76.6341L148.114 82.18L138.254 85.9411L135.747 96.2042L129.118 87.9809L118.578 88.7671L124.358 79.9277L120.342 70.1532Z" fill="#4D93FC"/>
<path d="M316.938 97.6062C316.938 93.9726 319.891 91.019 323.525 91.019C327.158 91.019 330.112 93.9726 330.112 97.6062C330.112 101.24 327.158 104.193 323.525 104.193C319.891 104.193 316.938 101.24 316.938 97.6062Z" fill="#60E5AE"/>
<path d="M151.898 123.976C151.898 121.448 153.96 119.386 156.488 119.386C159.017 119.386 161.078 121.448 161.078 123.976C161.078 126.505 159.017 128.566 156.488 128.566C153.96 128.566 151.898 126.526 151.898 123.976Z" fill="#DD9221"/>
<path d="M0.414062 201.406C0.414062 197.773 3.36764 194.819 7.00118 194.819C10.6347 194.819 13.5883 197.773 13.5883 201.406C13.5883 205.04 10.6347 207.994 7.00118 207.994C3.36764 207.994 0.414062 205.04 0.414062 201.406Z" fill="#DD9221"/>
<path d="M379.492 94.7809C379.492 92.2523 381.553 90.1912 384.082 90.1912C386.61 90.1912 388.672 92.2523 388.672 94.7809C388.672 97.3095 386.61 99.3706 384.082 99.3706C381.532 99.3494 379.492 97.3095 379.492 94.7809Z" fill="#E343E6"/>
<path d="M280.156 207.463C280.156 204.934 282.217 202.873 284.746 202.873C287.275 202.873 289.336 204.934 289.336 207.463C289.336 209.991 287.275 212.052 284.746 212.052C282.217 212.052 280.156 209.991 280.156 207.463Z" fill="#60E5AE"/>
<path d="M18.285 114.096C20.8199 114.096 22.8748 112.041 22.8748 109.506C22.8748 106.971 20.8199 104.916 18.285 104.916C15.7502 104.916 13.6953 106.971 13.6953 109.506C13.6953 112.041 15.7502 114.096 18.285 114.096Z" fill="#DD9221"/>
<path d="M508.406 212.413C508.406 209.885 510.467 207.823 512.996 207.823C515.525 207.823 517.586 209.885 517.586 212.413C517.586 214.942 515.525 217.003 512.996 217.003C510.467 217.003 508.406 214.942 508.406 212.413Z" fill="#DD9221"/>
<path d="M334.973 240.654C337.507 240.654 339.562 238.599 339.562 236.064C339.562 233.529 337.507 231.474 334.973 231.474C332.438 231.474 330.383 233.529 330.383 236.064C330.383 238.599 332.438 240.654 334.973 240.654Z" fill="#4D93FC"/>
<path d="M451.672 231.793C451.672 229.264 453.733 227.203 456.262 227.203C458.79 227.203 460.851 229.264 460.851 231.793C460.851 234.321 458.79 236.383 456.262 236.383C453.733 236.383 451.672 234.321 451.672 231.793Z" fill="#DD9221"/>
<path d="M49.9647 233.916C52.4996 233.916 54.5545 231.861 54.5545 229.326C54.5545 226.791 52.4996 224.736 49.9647 224.736C47.4299 224.736 45.375 226.791 45.375 229.326C45.375 231.861 47.4299 233.916 49.9647 233.916Z" fill="#DD9221"/>
<path d="M492.597 114.862C495.132 114.862 497.187 112.807 497.187 110.272C497.187 107.737 495.132 105.682 492.597 105.682C490.063 105.682 488.008 107.737 488.008 110.272C488.008 112.807 490.063 114.862 492.597 114.862Z" fill="#DD9221"/>
<path d="M99.0703 118.558C99.0703 114.924 102.024 111.971 105.657 111.971C109.291 111.971 112.245 114.924 112.245 118.558C112.245 122.191 109.291 125.145 105.657 125.145C102.024 125.145 99.0703 122.213 99.0703 118.558Z" fill="#E343E6"/>
<path d="M208.734 223.57C208.734 219.936 211.688 216.982 215.321 216.982C218.955 216.982 221.909 219.936 221.909 223.57C221.909 227.203 218.955 230.157 215.321 230.157C211.688 230.157 208.734 227.203 208.734 223.57Z" fill="#60E5AE"/>
<path d="M442.518 107.594L442.986 115.605L449.849 119.769L442.37 122.68L440.521 130.479L435.443 124.274L427.453 124.933L431.788 118.197L428.686 110.802L436.441 112.842L442.518 107.594Z" fill="#4D93FC"/>
<path d="M107.915 209.652L108.361 217.663L115.224 221.828L107.745 224.739L105.896 232.537L100.818 226.332L92.8281 226.991L97.1629 220.234L94.0606 212.839L101.838 214.879L107.915 209.652Z" fill="#60E5AE"/>
<path d="M391.224 205.039L396.579 210.989L404.547 209.969L400.51 216.917L403.952 224.163L396.112 222.485L390.29 227.988L389.461 219.998L382.406 216.152L389.758 212.901L391.224 205.039Z" fill="#E343E6"/>
<path d="M160.797 259.182C160.797 256.654 162.858 254.593 165.387 254.593C167.915 254.593 169.976 256.654 169.976 259.182C169.976 261.711 167.915 263.772 165.387 263.772C162.858 263.772 160.797 261.711 160.797 259.182Z" fill="#84CC16"/>
<path d="M249.451 249.301L254.806 255.272L262.753 254.231L258.737 261.179L262.158 268.425L254.317 266.747L248.495 272.25L247.666 264.261L240.633 260.436L247.964 257.185L249.451 249.301Z" fill="#E343E6"/>
<path d="M382.523 170.686C382.07 170.896 381.031 171.371 380.909 172.422C380.821 173.218 381.285 173.991 381.937 174.345C382.545 174.677 383.153 174.544 383.64 174.445C384.093 174.345 384.79 174.224 385.21 173.649C385.796 172.864 385.818 171.393 384.967 170.664C384.126 169.956 382.966 170.487 382.523 170.686Z" fill="white"/>
<path d="M385.54 142.042C384.866 141.544 383.793 141.379 382.776 141.622C382.058 141.788 381.527 142.141 381.306 142.573C381.184 142.816 381.173 143.214 381.173 144.187C381.173 144.795 381.162 145.104 381.206 145.668C381.284 146.862 381.991 162.096 382.046 166.32C382.046 166.729 382.069 167.823 382.787 168.287C383.03 168.442 383.329 168.52 383.638 168.52C384.07 168.52 384.523 168.365 384.821 168.077C385.308 167.624 385.308 166.928 385.308 166.684C385.297 162.528 385.64 158.315 385.971 154.236C386.181 151.638 386.402 148.941 386.524 146.287L386.535 146.155C386.601 144.629 386.679 142.893 385.54 142.042Z" fill="white"/>
<path d="M323.341 152.688C323.518 152.754 323.706 152.787 323.894 152.787C324.425 152.787 324.944 152.544 325.265 152.256C325.884 151.704 325.928 150.93 325.984 150.023C326.061 148.608 326.138 147.259 325.221 146.718C324.436 146.253 323.131 146.563 322.435 147.381C321.783 148.144 321.893 149.095 321.982 149.935C322.07 150.753 322.236 152.29 323.341 152.688Z" fill="white"/>
<path d="M417.01 170.391C414.438 168.131 411.777 165.812 410.82 161.786C410.387 159.96 410.462 158.524 411.045 157.222C412.181 154.693 415.32 152.733 417.04 153.496C418.37 154.079 419.193 154.828 419.805 155.995C420.045 156.444 420.493 156.519 420.852 156.384C421.241 156.234 421.57 155.83 421.45 155.307C421.196 154.244 420.374 151.64 418.221 150.458C415.216 148.812 410.626 149.815 407.741 152.763C404.84 155.726 404.96 160.11 404.975 160.903C404.975 161.128 404.99 161.472 405.035 161.936C405.393 164.929 407.143 167.024 407.86 167.862C408.04 168.071 408.234 168.281 408.428 168.49C406.933 170.525 404.855 172.695 402.209 173.892C401.491 174.207 401.133 174.281 400.804 174.132C399.667 173.638 399.877 170.645 400.25 165.692C400.31 164.899 400.37 164.061 400.43 163.163C401.073 153.87 400.819 151.221 399.234 150.264C398.128 149.605 396.782 149.994 395.9 150.249C393.702 150.892 391.669 152.822 387.363 161.023C387.378 160.783 387.378 160.574 387.378 160.32C387.393 160.005 387.408 159.676 387.423 159.302C387.662 154.678 387.752 150.503 386.392 150.189C386.137 150.129 385.644 150.174 385.001 150.234C383.985 150.323 383.431 150.383 383.013 150.653C382.056 151.266 382.131 152.778 382.161 153.286C382.28 155.366 382.206 157.476 382.131 159.526C382.116 159.781 382.116 160.05 382.116 160.32C381.727 160.544 381.264 160.769 380.74 160.963C379.933 161.262 379.186 161.427 378.588 161.502C377.706 155.292 374.491 150.578 370.724 149.994C367.151 149.441 364.968 151.266 364.938 151.281L363.712 152.793C360.378 153.78 357.807 156.638 356.656 160.649C355.833 163.477 355.833 166.5 356.506 169.208C355.609 170.316 354.667 171.378 353.621 172.321C351.423 174.311 350.735 174.281 350.586 174.221C350.122 174.042 349.674 173.234 349.763 168.58C349.808 165.901 350.003 164.031 350.227 161.846C350.302 161.128 350.376 160.364 350.451 159.541C351.184 151.7 350.616 150.698 349.868 150.264C348.762 149.62 346.983 150.264 346.071 151.236C345.234 152.134 345.144 153.301 345.114 153.735C344.755 158.314 344.651 162.325 344.636 164.959C343.44 166.724 342.079 168.311 340.539 169.672C339.074 170.959 336.353 173.383 334.843 172.605C333.677 172.022 333.677 169.642 333.692 168.64C333.707 161.651 333.782 156.204 333.871 151.999C334.544 151.97 335.187 151.925 335.77 151.91C340.719 151.67 342.214 151.595 342.901 150.308C343.454 149.276 343.245 147.779 342.468 147.181C341.735 146.612 340.674 146.971 339.552 147.346C339.403 147.39 339.239 147.45 339.089 147.495C337.579 147.989 335.77 148.408 333.961 148.737C334.14 141.839 334.365 139.429 334.365 139.384C334.469 138.337 334.574 135.868 333.483 135.419C333.109 135.269 332.541 135.419 331.27 135.778C330.523 135.988 330.134 136.092 329.88 136.272C328.818 137.02 328.848 138.666 328.848 139.235C328.863 141.046 328.773 145.295 328.669 149.485C327.503 149.605 326.561 149.665 325.993 149.68C325.589 149.68 324.498 149.695 324.169 150.353C323.989 150.698 324.094 151.087 324.184 151.281C324.483 152.044 325.843 152.269 327.891 152.269C328.116 152.269 328.355 152.269 328.594 152.254C328.579 153.212 328.22 161.352 328.19 163.776C328.175 164.884 328.175 166.53 328.235 168.55C327.607 169.059 326.964 169.568 326.321 170.046C322.793 172.68 321.926 172.8 321.567 172.62C320.64 172.171 320.79 169.972 320.924 167.996C321.672 157.162 322.001 150.997 320.222 150.353C319.699 150.159 318.697 150.353 318.129 150.473C317.546 150.608 316.933 150.742 316.499 151.161C316.155 151.476 315.991 151.895 315.916 152.299C314.675 151.296 313.016 150.383 310.923 150.249C310.728 150.234 310.549 150.234 310.37 150.234C306.243 150.234 303.477 153.376 302.536 154.439C299.336 158.06 297.901 163.881 298.858 169.268C298.888 169.448 298.933 169.627 298.977 169.807C294.896 174.236 293.266 174.82 292.624 174.461C292.489 174.386 292.175 174.206 291.921 171.707C291.712 169.538 291.697 167.353 291.921 165.213C295.703 160.05 298.379 154.469 299.86 148.632C301.968 140.372 300.428 136.661 299.321 135.194C298.992 134.761 298.14 133.608 296.645 133.189C294.208 132.486 291.801 134.252 291.009 134.82C288.737 136.481 286.524 140.208 286.524 165.452C286.524 166.44 286.524 167.607 286.584 168.804C285.522 170.136 284.446 171.348 283.369 172.351C282.966 172.725 282.129 173.518 281.575 173.309C280.888 173.039 280.873 171.229 280.873 170.63C280.873 168.939 280.992 166.335 281.112 163.582C281.321 158.943 281.575 153.69 281.291 151.371C281.261 151.132 281.172 150.413 280.619 149.979C280.185 149.635 279.482 149.53 278.72 149.665C277.673 149.874 276.731 150.488 276.268 151.281C275.805 152.089 275.909 152.942 275.939 153.301C276.014 154.124 275.984 157.94 275.924 165.557C275.924 166.41 275.894 167.098 275.879 167.502C274.818 168.969 273.622 170.271 272.246 171.348C271.305 172.082 268.419 174.311 267.238 173.533C266.595 173.114 266.64 171.408 266.79 167.981C267.014 162.729 267.163 156.998 267.388 153.376C267.447 152.299 267.552 150.518 266.565 149.964C265.728 149.5 264.472 150.129 263.829 150.668C262.768 151.565 262.514 152.852 262.439 153.271C261.781 156.743 261.677 161.651 261.632 163.507C261.617 164.15 261.587 164.779 261.572 165.422C260.451 167.009 259.195 168.445 257.79 169.702C256.324 170.989 253.588 173.398 252.093 172.635C250.927 172.052 250.927 169.672 250.942 168.67C250.957 161.681 251.032 156.234 251.122 152.029C251.794 151.999 252.437 151.955 253.02 151.94C257.969 151.7 259.464 151.625 260.152 150.338C260.705 149.306 260.495 147.809 259.718 147.211C258.986 146.642 257.924 147.001 256.803 147.375C256.653 147.42 256.489 147.48 256.339 147.525C254.829 148.019 253.02 148.438 251.211 148.767C251.391 141.869 251.615 139.459 251.615 139.414C251.705 138.367 251.824 135.898 250.733 135.449C250.359 135.299 249.791 135.449 248.535 135.793C247.788 136.003 247.399 136.107 247.13 136.287C246.068 137.035 246.098 138.696 246.098 139.25C246.113 141.061 246.024 145.325 245.919 149.5C244.753 149.62 243.811 149.68 243.243 149.695C242.839 149.695 241.748 149.71 241.419 150.368C241.24 150.713 241.344 151.102 241.434 151.296C241.733 152.059 243.093 152.284 245.142 152.284C245.366 152.284 245.605 152.284 245.844 152.269C245.814 153.69 245.635 158.883 245.575 160.035C245.485 161.921 245.321 165.303 245.485 168.565C244.858 169.074 244.215 169.583 243.572 170.061C240.044 172.695 239.176 172.815 238.818 172.635C237.891 172.186 238.04 169.987 238.175 168.011C238.922 157.177 239.251 151.012 237.472 150.368C236.949 150.174 235.947 150.368 235.379 150.488C234.766 150.623 234.183 150.757 233.749 151.176C233.406 151.491 233.241 151.91 233.166 152.314C231.926 151.311 230.266 150.398 228.173 150.264C223.748 149.964 220.758 153.331 219.771 154.439C216.572 158.06 215.136 163.881 216.093 169.268C216.153 169.583 216.213 169.867 216.288 170.166C213.118 173.922 211.982 174.281 211.593 174.072C211.204 173.862 211.294 172.635 211.608 168.535L211.653 167.966C212.176 161.083 212.266 159.257 211.13 158.629C210.681 158.374 210.278 158.479 209.665 158.644C209.171 158.778 208.484 158.943 207.437 159.018C206.286 159.093 205.135 159.033 203.998 158.808C205.15 157.237 207.302 153.885 206.54 151.625C206.45 151.371 206.331 151.146 206.166 150.952C204.985 149.47 201.861 149.515 199.977 151.027C199.02 151.79 198.616 152.778 198.452 153.197C197.615 155.277 197.914 157.865 199.199 159.766C199.483 160.185 199.827 160.544 200.186 160.888C198.258 163.372 196.374 165.826 194.58 168.191C194.804 163.986 195.073 158.988 195.387 153.167C195.417 152.568 195.522 150.772 194.595 150.308C194.341 150.174 194.071 150.204 193.593 150.249C192.95 150.323 191.754 150.443 191.081 151.251C190.693 151.715 190.588 152.284 190.573 152.703C189.302 151.551 187.493 150.428 185.161 150.264C180.706 149.949 177.746 153.391 176.759 154.513C173.545 158.225 172.11 164.18 173.096 169.687C173.126 169.822 173.156 169.957 173.186 170.091C171.855 171.588 170.211 173.009 168.252 173.892C167.535 174.207 167.176 174.281 166.847 174.132C165.711 173.638 165.92 170.645 166.294 165.707C166.354 164.914 166.414 164.076 166.473 163.178C167.116 153.885 166.862 151.236 165.277 150.279C164.171 149.62 162.825 150.009 161.943 150.264C159.746 150.907 157.712 152.837 153.407 161.038C153.422 160.649 153.452 160.065 153.482 159.332C153.766 151.042 152.854 150.308 152.45 150.219C152.196 150.159 151.702 150.204 151.06 150.264C150.043 150.353 149.49 150.413 149.056 150.683C148.099 151.296 148.189 152.808 148.204 153.316C148.324 155.381 148.249 157.506 148.174 159.541C148.159 159.781 148.159 160.035 148.159 160.275C147.98 160.364 147.83 160.484 147.651 160.574C146.709 161.008 145.692 161.307 144.661 161.472C144.212 158.374 143.181 155.636 141.79 153.616C140.878 152.284 139.339 150.503 136.767 149.964C136.378 149.889 133.209 149.276 130.922 151.296C130.324 151.82 129.95 152.374 129.726 152.778C126.392 153.78 123.805 156.653 122.654 160.649C122.236 162.115 122.041 163.627 122.026 165.138C119.933 167.907 116.27 171.423 110.664 172.501C104.863 173.608 101.111 172.097 98.9878 170.645C91.0194 165.153 92.0958 151.491 95.938 143.739C96.4762 142.662 99.4812 137.095 105.715 134.027C107.21 133.294 110.978 131.753 113.519 133.384C115.822 134.865 117.481 138.891 116.046 141.315C115.254 142.647 115.882 143.979 116.898 144.607C117.855 145.191 119.275 145.221 120.128 143.874C122.086 140.761 122.594 137.918 121.637 135.449C121.01 133.848 120.023 132.86 119.604 132.441C116.719 129.568 112.877 129.299 111.426 129.209C106.583 128.88 102.95 130.885 101.395 131.738C94.1589 135.718 86.5492 145.43 86.9529 157.342C87.2519 166.096 90.3765 172.665 95.7586 175.853C98.1955 177.304 101.006 178.022 104.116 178.022C105.028 178.022 105.97 177.963 106.941 177.828C114.252 176.87 119.29 171.992 122.25 168.041C122.684 170.6 123.701 172.964 125.255 174.73C127.154 176.87 129.681 177.768 132.207 177.768C134.48 177.768 136.737 177.035 138.516 175.853C142.015 173.503 144.317 169.223 144.721 164.375C145.902 164.136 147.023 163.731 148.099 163.178C148.099 163.298 148.084 163.417 148.084 163.552C148.084 165.737 148.159 167.951 148.219 170.091C148.279 171.962 148.339 173.892 148.354 175.793C148.354 176.137 148.369 177.035 149.011 177.484C149.266 177.663 149.594 177.723 149.908 177.723C150.85 177.723 151.867 177.169 151.927 177.14C153.766 176.137 153.661 173.713 153.482 169.328C153.437 168.34 153.407 167.233 153.377 166.036C154.932 163.657 156.531 161.307 158.221 159.033C159.432 157.402 160.553 155.935 161.016 155.935C161.495 156.1 161.345 157.776 161.121 160.095C160.927 162.28 160.643 165.258 160.598 169.014C160.553 173.324 160.867 175.883 162.691 177.125C163.633 177.768 164.664 177.828 165.262 177.828C165.337 177.828 165.397 177.828 165.442 177.828C168.746 177.783 171.796 175.314 174.023 172.875C174.845 174.85 176.041 176.346 177.492 177.14C178.523 177.708 179.794 177.992 181.125 177.992C182.201 177.992 183.307 177.798 184.354 177.424C186.791 176.526 188.076 174.745 189.571 172.68C189.721 172.486 189.841 172.261 189.975 172.067C189.945 172.875 189.915 173.683 189.885 174.491C185.415 180.581 181.738 185.879 179.331 189.725C178.105 191.67 175.563 195.74 176.864 199.736C177.492 201.651 178.733 202.833 179.375 203.432C180.676 204.659 182.395 205.183 184.13 205.183C185.939 205.183 187.748 204.614 189.078 203.671C190.095 202.953 190.648 202.145 191.141 201.427C192.711 199.107 193.025 196.803 193.294 193.795C193.653 189.769 193.832 187.734 193.787 185.624C193.758 184.397 193.952 180.162 194.356 172.456C196.748 168.939 199.214 165.452 201.696 161.996C203.371 162.864 205.419 163.133 207.467 162.669C207.198 165.497 206.944 168.445 206.719 171.468C206.57 173.324 206.391 175.613 207.721 176.571C208.424 177.08 209.605 177.199 209.859 177.229C209.859 177.229 211.518 177.125 211.847 177.065C213.701 176.75 216.706 173.234 216.826 173.084C216.915 172.964 217.005 172.845 217.11 172.74C217.932 174.566 219.083 175.942 220.474 176.691C221.505 177.244 222.776 177.529 224.107 177.529C225.183 177.529 226.289 177.349 227.321 176.975C229.758 176.092 231.058 174.341 232.553 172.321C232.658 172.186 232.748 172.037 232.838 171.902C232.912 174.805 233.017 176.586 234.333 177.379C234.781 177.648 235.259 177.738 235.753 177.738C236.56 177.738 237.367 177.484 237.98 177.289C240.238 176.571 241.509 175.224 244.05 172.56C244.573 172.007 245.097 171.453 245.635 170.899C245.784 172.216 246.009 173.443 246.338 174.431C246.472 174.835 246.876 176.032 247.997 176.75C248.64 177.154 249.372 177.304 250.06 177.304C251.152 177.304 252.168 176.96 252.721 176.78C255.427 175.868 257.191 174.087 258.761 172.336C259.688 171.303 260.585 170.211 261.452 169.089C261.422 171.962 261.587 174.76 262.544 176.017C262.783 176.331 263.067 176.571 263.216 176.691C263.216 176.735 263.336 176.78 263.336 176.78C264.293 177.125 265.265 177.289 266.206 177.289C266.476 177.289 266.73 177.274 266.999 177.244C270.258 176.915 272.366 174.596 274.609 172.141C275.027 171.678 275.446 171.199 275.834 170.705C275.834 174.97 276.148 176.242 277.195 176.885C277.748 177.229 278.361 177.319 278.914 177.319C279.303 177.319 279.647 177.274 279.931 177.244C281.785 177.005 283.04 175.897 284.162 174.775C285.074 173.862 285.971 172.86 286.838 171.812C287.227 174.266 288.034 176.451 289.798 177.229C290.426 177.514 290.979 177.514 291.353 177.529C291.398 177.529 291.443 177.529 291.487 177.529C294.881 177.529 297.811 174.461 299.59 172.067C300.413 174.236 301.683 175.897 303.253 176.735C304.285 177.289 305.556 177.573 306.886 177.573C307.963 177.573 309.069 177.394 310.1 177.02C312.537 176.137 313.823 174.386 315.333 172.366C315.438 172.231 315.527 172.082 315.617 171.947C315.692 174.85 315.796 176.631 317.112 177.424C317.546 177.693 318.039 177.783 318.532 177.783C319.34 177.783 320.147 177.529 320.76 177.334C323.017 176.616 324.288 175.269 326.83 172.605C327.353 172.052 327.891 171.498 328.415 170.944C328.564 172.261 328.788 173.488 329.117 174.476C329.252 174.88 329.655 176.077 330.777 176.795C331.42 177.199 332.152 177.349 332.84 177.349C333.931 177.349 334.948 177.005 335.501 176.825C338.207 175.912 339.971 174.132 341.541 172.381C342.632 171.169 343.664 169.897 344.665 168.58C344.68 169.313 344.695 169.987 344.71 170.6C344.77 174.416 344.8 176.167 346.175 176.975C346.684 177.274 347.357 177.424 348.164 177.424C348.657 177.424 349.21 177.364 349.793 177.244C351.199 176.96 352.23 176.257 353.053 175.613C354.697 174.341 356.058 172.785 357.164 171.288C357.687 172.605 358.39 173.802 359.272 174.805C361.156 176.945 363.682 177.828 366.179 177.828C368.436 177.828 370.694 177.11 372.458 175.912C375.956 173.563 378.259 169.283 378.647 164.435C379.843 164.195 380.98 163.791 382.056 163.223C382.056 163.357 382.041 163.507 382.041 163.642C382.041 165.826 382.116 168.041 382.176 170.181C382.235 172.052 382.295 173.982 382.31 175.882C382.31 176.227 382.325 177.14 382.968 177.588C383.222 177.768 383.551 177.828 383.865 177.828C384.807 177.828 385.824 177.274 385.883 177.244C387.707 176.227 387.618 173.817 387.438 169.433C387.393 168.445 387.363 167.338 387.333 166.141C388.888 163.761 390.503 161.412 392.177 159.137C393.388 157.506 394.495 156.04 394.973 156.04C395.451 156.204 395.302 157.88 395.078 160.2C394.883 162.385 394.599 165.363 394.554 169.119C394.51 173.428 394.824 175.987 396.647 177.229C397.589 177.873 398.621 177.933 399.219 177.933C399.294 177.933 399.353 177.933 399.398 177.933C403.988 177.873 408.099 173.129 410.148 170.316C410.746 170.869 411.344 171.408 411.942 171.947C414.02 173.802 416.158 175.703 417.488 177.843C419.357 180.821 418.819 185.624 416.307 188.542C414.962 190.114 413.018 191.101 410.551 191.505C409.445 191.685 406.53 192.149 404.063 190.323C403.256 189.725 402.583 188.946 402.074 188.019C402.957 187.929 403.794 187.644 404.496 187.196C406.32 186.043 407.756 183.559 407.023 181.404C406.963 181.21 406.335 179.519 404.721 179.1C403.256 178.696 401.985 179.624 401.566 179.923C399.084 181.719 399.204 185.43 399.279 186.387C398.531 186.477 397.814 186.417 397.141 186.253C396.812 186.163 396.498 186.043 396.214 185.939C395.571 185.699 395.018 185.49 394.614 185.819C394.54 185.879 394.345 186.073 394.33 186.343C394.27 187.375 396.842 188.049 397.126 188.123C397.948 188.333 398.815 188.408 399.697 188.318C399.877 188.707 400.086 189.066 400.325 189.425C400.325 189.425 401.267 190.862 402.687 191.999C404.182 193.181 406.829 194.363 409.938 194.378C414.274 194.408 417.234 192.164 418.041 191.535C418.953 190.832 422.003 188.168 422.9 183.769C423.364 181.539 423.109 179.713 423.02 179.22C422.317 175.03 419.626 172.665 417.01 170.391ZM132.656 172.545C130.593 172.755 128.873 171.543 127.662 169.059C125.569 164.749 126.048 159.945 128.844 156.623C128.844 158.868 129.531 160.709 130.907 162.1C132.85 164.076 136.184 165.063 140.325 164.929C139.339 168.326 136.02 172.201 132.656 172.545ZM133.837 159.841C132.97 158.958 131.579 157.252 132.103 155.755C132.447 154.753 133.388 153.975 134.599 153.675C134.958 153.586 135.317 153.541 135.661 153.541C136.573 153.541 137.425 153.84 138.023 154.394C140.071 156.264 140.759 159.497 140.714 161.981C137.873 162.34 135.631 161.651 133.837 159.841ZM190.155 168.67C189.138 170.286 187.643 171.887 185.535 172.59C184.877 172.8 183.681 173.204 182.41 172.77C179.495 171.767 178.777 167.233 178.628 165.871C178.105 161.158 180.243 153.945 184.757 153.406C187.09 153.122 189.198 154.663 190.588 156.04C190.498 158.868 190.349 163.372 190.155 168.67ZM365.985 155.741C366.343 154.723 367.285 153.945 368.526 153.631C368.885 153.541 369.244 153.496 369.602 153.496C370.529 153.496 371.397 153.795 371.995 154.349C374.058 156.234 374.745 159.512 374.701 162.011C371.815 162.385 369.528 161.681 367.734 159.856C366.852 158.973 365.446 157.252 365.985 155.741ZM374.312 164.869C373.325 168.296 369.976 172.246 366.583 172.575C364.519 172.785 362.755 171.573 361.544 169.059C359.421 164.689 359.93 159.811 362.815 156.474C362.785 158.763 363.473 160.634 364.863 162.04C366.822 164.031 370.171 165.033 374.312 164.869ZM315.826 163.911C315.737 165.467 315.647 167.069 315.617 168.655C314.6 170.121 313.195 171.528 311.237 172.171C310.594 172.381 309.383 172.785 308.112 172.351C305.197 171.363 304.479 166.919 304.33 165.587C303.806 160.963 305.944 153.885 310.459 153.346C312.642 153.077 314.645 154.394 316.021 155.681C316.155 158.434 316.006 161.217 315.826 163.911ZM291.697 156.743C291.816 139.235 294.044 137.364 294.732 137.215C294.776 137.2 294.971 137.17 295.24 137.17C295.539 137.17 295.913 137.215 296.301 137.409C297.124 137.813 297.482 138.681 297.617 138.995C299.919 144.562 294.776 155.83 294.732 155.935C293.835 157.865 292.818 159.781 291.697 161.621C291.682 160.409 291.682 158.718 291.697 156.743ZM233.092 163.911C232.987 165.467 232.912 167.069 232.882 168.655C231.866 170.121 230.46 171.528 228.502 172.171C227.859 172.381 226.648 172.785 225.362 172.351C222.432 171.363 221.729 166.919 221.58 165.587C221.057 160.963 223.195 153.885 227.71 153.346C229.907 153.092 231.896 154.394 233.271 155.666C233.406 158.434 233.256 161.217 233.092 163.911ZM202.802 152.179C203.072 152.179 203.326 152.239 203.52 152.374C203.804 152.568 203.998 153.017 204.088 153.631C204.357 155.576 203.221 157.387 202.444 158.374C201.92 157.97 201.113 157.177 200.739 155.965C200.56 155.351 200.171 154.079 200.904 153.137C201.367 152.538 202.16 152.179 202.802 152.179ZM189.482 186.013C189.542 188.542 189.467 191.071 189.287 193.555C189.078 196.234 188.854 197.566 187.927 198.838C186.91 200.244 185.834 200.978 184.728 200.978C182.978 200.978 181.708 199.152 181.573 198.943C179.375 195.65 183.547 188.782 189.228 180.132C189.407 179.878 189.571 179.609 189.751 179.354C189.646 181.554 189.557 183.799 189.482 186.013ZM403.764 181.419C403.854 181.419 404.706 181.449 405.109 182.033C405.633 182.811 405.005 183.978 404.795 184.322C403.883 185.819 401.925 186.043 401.267 186.073C401.118 185.445 400.923 184.158 401.641 182.961C402.254 181.958 402.986 181.419 403.764 181.419Z" fill="#1F1F1F"/>
<path d="M73.6986 338.402C73.6986 341.042 71.5866 343.418 67.7706 343.418C64.2906 343.418 61.6026 341.594 61.5546 338.426H65.1546C65.2506 339.77 66.1386 340.658 67.6986 340.658C69.2826 340.658 70.2186 339.818 70.2186 338.618C70.2186 334.994 61.5786 337.178 61.6026 331.106C61.6026 328.082 64.0506 326.258 67.5066 326.258C70.9386 326.258 73.2906 328.01 73.5066 331.034H69.8106C69.7386 329.93 68.8506 329.066 67.4106 329.042C66.0906 328.994 65.1066 329.642 65.1066 331.01C65.1066 334.37 73.6986 332.498 73.6986 338.402ZM88.6836 329.954V343.25H85.2996V341.57C84.4596 342.698 82.9956 343.418 81.3396 343.418C78.2436 343.418 76.0116 341.402 76.0116 337.754V329.954H79.3716V337.274C79.3716 339.41 80.5476 340.562 82.3236 340.562C84.1476 340.562 85.2996 339.41 85.2996 337.274V329.954H88.6836ZM90.6548 336.602C90.6548 332.426 93.3908 329.738 97.2308 329.738C100.543 329.738 102.775 331.466 103.495 334.442H99.8708C99.4868 333.314 98.5988 332.594 97.2068 332.594C95.3348 332.594 94.0868 334.01 94.0868 336.602C94.0868 339.194 95.3348 340.586 97.2068 340.586C98.5988 340.586 99.4628 339.962 99.8708 338.762H103.495C102.775 341.594 100.543 343.466 97.2308 343.466C93.3908 343.466 90.6548 340.778 90.6548 336.602ZM104.612 336.602C104.612 332.426 107.348 329.738 111.188 329.738C114.5 329.738 116.732 331.466 117.452 334.442H113.828C113.444 333.314 112.556 332.594 111.164 332.594C109.292 332.594 108.044 334.01 108.044 336.602C108.044 339.194 109.292 340.586 111.164 340.586C112.556 340.586 113.42 339.962 113.828 338.762H117.452C116.732 341.594 114.5 343.466 111.188 343.466C107.348 343.466 104.612 340.778 104.612 336.602ZM125.146 332.498C123.538 332.498 122.266 333.53 122.002 335.354H128.314C128.266 333.602 126.874 332.498 125.146 332.498ZM131.458 339.074C130.738 341.522 128.53 343.466 125.242 343.466C121.378 343.466 118.57 340.778 118.57 336.602C118.57 332.402 121.306 329.738 125.242 329.738C129.082 329.738 131.794 332.354 131.794 336.314C131.794 336.746 131.77 337.178 131.698 337.61H121.978C122.146 339.578 123.49 340.682 125.17 340.682C126.61 340.682 127.402 339.962 127.834 339.074H131.458ZM144.086 339.458C144.086 341.738 142.094 343.466 138.854 343.466C135.518 343.466 133.19 341.522 133.046 339.05H136.43C136.55 340.058 137.486 340.826 138.83 340.826C140.15 340.826 140.87 340.226 140.87 339.458C140.87 337.082 133.358 338.594 133.358 333.722C133.358 331.514 135.326 329.738 138.614 329.738C141.83 329.738 143.774 331.49 143.966 334.13H140.75C140.654 333.098 139.838 332.402 138.518 332.402C137.27 332.402 136.622 332.906 136.622 333.674C136.622 336.098 143.99 334.586 144.086 339.458ZM156.684 339.458C156.684 341.738 154.692 343.466 151.452 343.466C148.116 343.466 145.788 341.522 145.644 339.05H149.028C149.148 340.058 150.084 340.826 151.428 340.826C152.748 340.826 153.468 340.226 153.468 339.458C153.468 337.082 145.956 338.594 145.956 333.722C145.956 331.514 147.924 329.738 151.212 329.738C154.428 329.738 156.372 331.49 156.564 334.13H153.348C153.252 333.098 152.436 332.402 151.116 332.402C149.868 332.402 149.22 332.906 149.22 333.674C149.22 336.098 156.588 334.586 156.684 339.458ZM159.323 343.25V332.714H157.811V329.954H159.323V329.282C159.323 326.018 161.171 324.506 164.915 324.602V327.434C163.283 327.386 162.731 327.914 162.731 329.402V329.954H165.059V332.714H162.731V343.25H159.323ZM179.308 329.954V343.25H175.924V341.57C175.084 342.698 173.62 343.418 171.964 343.418C168.868 343.418 166.636 341.402 166.636 337.754V329.954H169.996V337.274C169.996 339.41 171.172 340.562 172.948 340.562C174.772 340.562 175.924 339.41 175.924 337.274V329.954H179.308ZM182.143 343.25V325.49H185.503V343.25H182.143ZM188.343 343.25V325.49H191.703V343.25H188.343ZM200.207 339.242L203.687 329.954H207.263L199.031 349.538H195.455L198.335 342.914L193.007 329.954H196.775L200.207 339.242ZM213.017 334.85C213.017 329.834 216.689 326.282 221.513 326.282C225.233 326.282 228.257 328.274 229.385 331.706H225.521C224.729 330.098 223.289 329.306 221.489 329.306C218.561 329.306 216.473 331.442 216.473 334.85C216.473 338.234 218.561 340.394 221.489 340.394C223.289 340.394 224.729 339.602 225.521 337.97H229.385C228.257 341.426 225.233 343.394 221.513 343.394C216.689 343.394 213.017 339.866 213.017 334.85ZM244.614 336.602C244.614 340.778 241.542 343.466 237.678 343.466C233.838 343.466 230.934 340.778 230.934 336.602C230.934 332.402 233.934 329.738 237.774 329.738C241.614 329.738 244.614 332.402 244.614 336.602ZM234.342 336.602C234.342 339.242 235.878 340.538 237.678 340.538C239.454 340.538 241.158 339.242 241.158 336.602C241.158 333.938 239.502 332.666 237.726 332.666C235.95 332.666 234.342 333.938 234.342 336.602ZM265.199 343.25V335.906C265.199 333.794 264.023 332.69 262.247 332.69C260.447 332.69 259.271 333.794 259.271 335.906V343.25H255.911V335.906C255.911 333.794 254.735 332.69 252.959 332.69C251.135 332.69 249.959 333.794 249.959 335.906V343.25H246.599V329.954H249.959V331.562C250.799 330.458 252.215 329.762 253.871 329.762C255.935 329.762 257.639 330.65 258.551 332.306C259.415 330.794 261.167 329.762 263.111 329.762C266.303 329.762 268.559 331.778 268.559 335.45V343.25H265.199ZM274.628 331.874C275.42 330.746 276.956 329.738 279.02 329.738C282.428 329.738 285.092 332.402 285.092 336.554C285.092 340.706 282.428 343.466 279.02 343.466C276.932 343.466 275.444 342.434 274.628 341.354V349.586H271.268V329.954H274.628V331.874ZM281.66 336.554C281.66 334.034 279.956 332.69 278.132 332.69C276.332 332.69 274.628 334.082 274.628 336.602C274.628 339.122 276.332 340.514 278.132 340.514C279.956 340.514 281.66 339.074 281.66 336.554ZM287.053 343.25V325.49H290.413V343.25H287.053ZM298.965 332.498C297.357 332.498 296.085 333.53 295.821 335.354H302.133C302.085 333.602 300.693 332.498 298.965 332.498ZM305.277 339.074C304.557 341.522 302.349 343.466 299.061 343.466C295.197 343.466 292.389 340.778 292.389 336.602C292.389 332.402 295.125 329.738 299.061 329.738C302.901 329.738 305.613 332.354 305.613 336.314C305.613 336.746 305.589 337.178 305.517 337.61H295.797C295.965 339.578 297.309 340.682 298.989 340.682C300.429 340.682 301.221 339.962 301.653 339.074H305.277ZM308.113 339.122V332.714H306.529V329.954H308.113V326.666H311.497V329.954H314.473V332.714H311.497V339.146C311.497 340.034 311.857 340.418 312.913 340.418H314.473V343.25H312.361C309.817 343.25 308.113 342.17 308.113 339.122ZM322.122 332.498C320.514 332.498 319.242 333.53 318.978 335.354H325.29C325.242 333.602 323.85 332.498 322.122 332.498ZM328.434 339.074C327.714 341.522 325.506 343.466 322.218 343.466C318.354 343.466 315.546 340.778 315.546 336.602C315.546 332.402 318.282 329.738 322.218 329.738C326.058 329.738 328.77 332.354 328.77 336.314C328.77 336.746 328.746 337.178 328.674 337.61H318.954C319.122 339.578 320.466 340.682 322.146 340.682C323.586 340.682 324.378 339.962 324.81 339.074H328.434ZM329.879 336.554C329.879 332.402 332.567 329.738 335.975 329.738C337.727 329.738 339.407 330.554 340.319 331.802V325.49H343.727V343.25H340.319V341.282C339.527 342.506 338.039 343.466 335.951 343.466C332.567 343.466 329.879 340.706 329.879 336.554ZM340.343 336.602C340.343 334.082 338.663 332.69 336.815 332.69C335.015 332.69 333.311 334.034 333.311 336.554C333.311 339.074 335.015 340.514 336.815 340.514C338.663 340.514 340.343 339.122 340.343 336.602ZM352.295 339.122V332.714H350.711V329.954H352.295V326.666H355.679V329.954H358.655V332.714H355.679V339.146C355.679 340.034 356.039 340.418 357.095 340.418H358.655V343.25H356.543C353.999 343.25 352.295 342.17 352.295 339.122ZM360.592 343.25V325.49H363.952V331.61C364.816 330.482 366.304 329.762 368.08 329.762C371.08 329.762 373.264 331.778 373.264 335.45V343.25H369.904V335.906C369.904 333.77 368.728 332.618 366.952 332.618C365.128 332.618 363.952 333.77 363.952 335.906V343.25H360.592ZM381.691 332.498C380.083 332.498 378.811 333.53 378.547 335.354H384.859C384.811 333.602 383.419 332.498 381.691 332.498ZM388.003 339.074C387.283 341.522 385.075 343.466 381.787 343.466C377.923 343.466 375.115 340.778 375.115 336.602C375.115 332.402 377.851 329.738 381.787 329.738C385.627 329.738 388.339 332.354 388.339 336.314C388.339 336.746 388.315 337.178 388.243 337.61H378.523C378.691 339.578 380.035 340.682 381.715 340.682C383.155 340.682 383.947 339.962 384.379 339.074H388.003ZM394.662 329.21V326.498H406.95V329.21H402.486V343.25H399.126V329.21H394.662ZM408.058 336.554C408.058 332.402 410.746 329.738 414.13 329.738C416.266 329.738 417.73 330.746 418.522 331.85V329.954H421.906V343.25H418.522V341.306C417.73 342.458 416.218 343.466 414.106 343.466C410.746 343.466 408.058 340.706 408.058 336.554ZM418.522 336.602C418.522 334.082 416.842 332.69 414.994 332.69C413.194 332.69 411.49 334.034 411.49 336.554C411.49 339.074 413.194 340.514 414.994 340.514C416.842 340.514 418.522 339.122 418.522 336.602ZM435.027 339.458C435.027 341.738 433.035 343.466 429.795 343.466C426.459 343.466 424.131 341.522 423.987 339.05H427.371C427.491 340.058 428.427 340.826 429.771 340.826C431.091 340.826 431.811 340.226 431.811 339.458C431.811 337.082 424.299 338.594 424.299 333.722C424.299 331.514 426.267 329.738 429.555 329.738C432.771 329.738 434.715 331.49 434.907 334.13H431.691C431.595 333.098 430.779 332.402 429.459 332.402C428.211 332.402 427.563 332.906 427.563 333.674C427.563 336.098 434.931 334.586 435.027 339.458ZM437.305 343.25V325.49H440.665V335.594L445.129 329.954H449.497L443.641 336.626L449.545 343.25H445.177L440.665 337.586V343.25H437.305ZM451.969 337.802L451.561 326.21H455.185L454.801 337.802H451.969ZM455.497 341.45C455.497 342.554 454.633 343.418 453.457 343.418C452.233 343.418 451.369 342.554 451.369 341.45C451.369 340.346 452.233 339.482 453.457 339.482C454.633 339.482 455.497 340.346 455.497 341.45Z" fill="#1F1F1F"/>
<path d="M14.4888 372.968C14.4888 371.744 14.7648 370.646 15.3168 369.674C15.8688 368.69 16.6188 367.922 17.5668 367.37C18.5268 366.818 19.5888 366.542 20.7528 366.542C22.1208 366.542 23.3148 366.872 24.3348 367.532C25.3548 368.192 26.0988 369.128 26.5668 370.34H24.6048C24.2568 369.584 23.7528 369.002 23.0928 368.594C22.4448 368.186 21.6648 367.982 20.7528 367.982C19.8768 367.982 19.0908 368.186 18.3948 368.594C17.6988 369.002 17.1528 369.584 16.7568 370.34C16.3608 371.084 16.1628 371.96 16.1628 372.968C16.1628 373.964 16.3608 374.84 16.7568 375.596C17.1528 376.34 17.6988 376.916 18.3948 377.324C19.0908 377.732 19.8768 377.936 20.7528 377.936C21.6648 377.936 22.4448 377.738 23.0928 377.342C23.7528 376.934 24.2568 376.352 24.6048 375.596H26.5668C26.0988 376.796 25.3548 377.726 24.3348 378.386C23.3148 379.034 22.1208 379.358 20.7528 379.358C19.5888 379.358 18.5268 379.088 17.5668 378.548C16.6188 377.996 15.8688 377.234 15.3168 376.262C14.7648 375.29 14.4888 374.192 14.4888 372.968ZM33.3071 379.412C32.3831 379.412 31.5431 379.202 30.7871 378.782C30.0431 378.362 29.4551 377.768 29.0231 377C28.6031 376.22 28.3931 375.32 28.3931 374.3C28.3931 373.292 28.6091 372.404 29.0411 371.636C29.4851 370.856 30.0851 370.262 30.8411 369.854C31.5971 369.434 32.4431 369.224 33.3791 369.224C34.3151 369.224 35.1611 369.434 35.9171 369.854C36.6731 370.262 37.2671 370.85 37.6991 371.618C38.1431 372.386 38.3651 373.28 38.3651 374.3C38.3651 375.32 38.1371 376.22 37.6811 377C37.2371 377.768 36.6311 378.362 35.8631 378.782C35.0951 379.202 34.2431 379.412 33.3071 379.412ZM33.3071 377.972C33.8951 377.972 34.4471 377.834 34.9631 377.558C35.4791 377.282 35.8931 376.868 36.2051 376.316C36.5291 375.764 36.6911 375.092 36.6911 374.3C36.6911 373.508 36.5351 372.836 36.2231 372.284C35.9111 371.732 35.5031 371.324 34.9991 371.06C34.4951 370.784 33.9491 370.646 33.3611 370.646C32.7611 370.646 32.2091 370.784 31.7051 371.06C31.2131 371.324 30.8171 371.732 30.5171 372.284C30.2171 372.836 30.0671 373.508 30.0671 374.3C30.0671 375.104 30.2111 375.782 30.4991 376.334C30.7991 376.886 31.1951 377.3 31.6871 377.576C32.1791 377.84 32.7191 377.972 33.3071 377.972ZM45.3248 369.206C46.5248 369.206 47.4968 369.572 48.2408 370.304C48.9848 371.024 49.3568 372.068 49.3568 373.436V379.25H47.7368V373.67C47.7368 372.686 47.4908 371.936 46.9988 371.42C46.5068 370.892 45.8348 370.628 44.9828 370.628C44.1188 370.628 43.4288 370.898 42.9128 371.438C42.4088 371.978 42.1568 372.764 42.1568 373.796V379.25H40.5188V369.386H42.1568V370.79C42.4808 370.286 42.9188 369.896 43.4708 369.62C44.0348 369.344 44.6528 369.206 45.3248 369.206ZM56.1005 369.224C56.9525 369.224 57.6965 369.41 58.3325 369.782C58.9805 370.154 59.4605 370.622 59.7725 371.186V369.386H61.4285V379.466C61.4285 380.366 61.2365 381.164 60.8525 381.86C60.4685 382.568 59.9165 383.12 59.1965 383.516C58.4885 383.912 57.6605 384.11 56.7125 384.11C55.4165 384.11 54.3365 383.804 53.4725 383.192C52.6085 382.58 52.0985 381.746 51.9425 380.69H53.5625C53.7425 381.29 54.1145 381.77 54.6785 382.13C55.2425 382.502 55.9205 382.688 56.7125 382.688C57.6125 382.688 58.3445 382.406 58.9085 381.842C59.4845 381.278 59.7725 380.486 59.7725 379.466V377.396C59.4485 377.972 58.9685 378.452 58.3325 378.836C57.6965 379.22 56.9525 379.412 56.1005 379.412C55.2245 379.412 54.4265 379.196 53.7065 378.764C52.9985 378.332 52.4405 377.726 52.0325 376.946C51.6245 376.166 51.4205 375.278 51.4205 374.282C51.4205 373.274 51.6245 372.392 52.0325 371.636C52.4405 370.868 52.9985 370.274 53.7065 369.854C54.4265 369.434 55.2245 369.224 56.1005 369.224ZM59.7725 374.3C59.7725 373.556 59.6225 372.908 59.3225 372.356C59.0225 371.804 58.6145 371.384 58.0985 371.096C57.5945 370.796 57.0365 370.646 56.4245 370.646C55.8125 370.646 55.2545 370.79 54.7505 371.078C54.2465 371.366 53.8445 371.786 53.5445 372.338C53.2445 372.89 53.0945 373.538 53.0945 374.282C53.0945 375.038 53.2445 375.698 53.5445 376.262C53.8445 376.814 54.2465 377.24 54.7505 377.54C55.2545 377.828 55.8125 377.972 56.4245 377.972C57.0365 377.972 57.5945 377.828 58.0985 377.54C58.6145 377.24 59.0225 376.814 59.3225 376.262C59.6225 375.698 59.7725 375.044 59.7725 374.3ZM65.8345 370.988C66.1225 370.424 66.5305 369.986 67.0585 369.674C67.5985 369.362 68.2525 369.206 69.0205 369.206V370.898H68.5885C66.7525 370.898 65.8345 371.894 65.8345 373.886V379.25H64.1965V369.386H65.8345V370.988ZM70.2994 374.282C70.2994 373.274 70.5034 372.392 70.9114 371.636C71.3194 370.868 71.8774 370.274 72.5854 369.854C73.3054 369.434 74.1034 369.224 74.9794 369.224C75.8434 369.224 76.5934 369.41 77.2294 369.782C77.8654 370.154 78.3394 370.622 78.6514 371.186V369.386H80.3074V379.25H78.6514V377.414C78.3274 377.99 77.8414 378.47 77.1934 378.854C76.5574 379.226 75.8134 379.412 74.9614 379.412C74.0854 379.412 73.2934 379.196 72.5854 378.764C71.8774 378.332 71.3194 377.726 70.9114 376.946C70.5034 376.166 70.2994 375.278 70.2994 374.282ZM78.6514 374.3C78.6514 373.556 78.5014 372.908 78.2014 372.356C77.9014 371.804 77.4934 371.384 76.9774 371.096C76.4734 370.796 75.9154 370.646 75.3034 370.646C74.6914 370.646 74.1334 370.79 73.6294 371.078C73.1254 371.366 72.7234 371.786 72.4234 372.338C72.1234 372.89 71.9734 373.538 71.9734 374.282C71.9734 375.038 72.1234 375.698 72.4234 376.262C72.7234 376.814 73.1254 377.24 73.6294 377.54C74.1334 377.828 74.6914 377.972 75.3034 377.972C75.9154 377.972 76.4734 377.828 76.9774 377.54C77.4934 377.24 77.9014 376.814 78.2014 376.262C78.5014 375.698 78.6514 375.044 78.6514 374.3ZM85.0735 370.736V376.55C85.0735 377.03 85.1755 377.372 85.3795 377.576C85.5835 377.768 85.9375 377.864 86.4415 377.864H87.6475V379.25H86.1715C85.2595 379.25 84.5755 379.04 84.1195 378.62C83.6635 378.2 83.4355 377.51 83.4355 376.55V370.736H82.1575V369.386H83.4355V366.902H85.0735V369.386H87.6475V370.736H85.0735ZM98.3801 369.386V379.25H96.7421V377.792C96.4301 378.296 95.9921 378.692 95.4281 378.98C94.8761 379.256 94.2641 379.394 93.5921 379.394C92.8241 379.394 92.1341 379.238 91.5221 378.926C90.9101 378.602 90.4241 378.122 90.0641 377.486C89.7161 376.85 89.5421 376.076 89.5421 375.164V369.386H91.1621V374.948C91.1621 375.92 91.4081 376.67 91.9001 377.198C92.3921 377.714 93.0641 377.972 93.9161 377.972C94.7921 377.972 95.4821 377.702 95.9861 377.162C96.4901 376.622 96.7421 375.836 96.7421 374.804V369.386H98.3801ZM102.784 365.93V379.25H101.146V365.93H102.784ZM104.963 374.282C104.963 373.274 105.167 372.392 105.575 371.636C105.983 370.868 106.541 370.274 107.249 369.854C107.969 369.434 108.767 369.224 109.643 369.224C110.507 369.224 111.257 369.41 111.893 369.782C112.529 370.154 113.003 370.622 113.315 371.186V369.386H114.971V379.25H113.315V377.414C112.991 377.99 112.505 378.47 111.857 378.854C111.221 379.226 110.477 379.412 109.625 379.412C108.749 379.412 107.957 379.196 107.249 378.764C106.541 378.332 105.983 377.726 105.575 376.946C105.167 376.166 104.963 375.278 104.963 374.282ZM113.315 374.3C113.315 373.556 113.165 372.908 112.865 372.356C112.565 371.804 112.157 371.384 111.641 371.096C111.137 370.796 110.579 370.646 109.967 370.646C109.355 370.646 108.797 370.79 108.293 371.078C107.789 371.366 107.387 371.786 107.087 372.338C106.787 372.89 106.637 373.538 106.637 374.282C106.637 375.038 106.787 375.698 107.087 376.262C107.387 376.814 107.789 377.24 108.293 377.54C108.797 377.828 109.355 377.972 109.967 377.972C110.579 377.972 111.137 377.828 111.641 377.54C112.157 377.24 112.565 376.814 112.865 376.262C113.165 375.698 113.315 375.044 113.315 374.3ZM119.738 370.736V376.55C119.738 377.03 119.84 377.372 120.044 377.576C120.248 377.768 120.602 377.864 121.106 377.864H122.312V379.25H120.836C119.924 379.25 119.24 379.04 118.784 378.62C118.328 378.2 118.1 377.51 118.1 376.55V370.736H116.822V369.386H118.1V366.902H119.738V369.386H122.312V370.736H119.738ZM125.142 367.784C124.83 367.784 124.566 367.676 124.35 367.46C124.134 367.244 124.026 366.98 124.026 366.668C124.026 366.356 124.134 366.092 124.35 365.876C124.566 365.66 124.83 365.552 125.142 365.552C125.442 365.552 125.694 365.66 125.898 365.876C126.114 366.092 126.222 366.356 126.222 366.668C126.222 366.98 126.114 367.244 125.898 367.46C125.694 367.676 125.442 367.784 125.142 367.784ZM125.934 369.386V379.25H124.296V369.386H125.934ZM133.028 379.412C132.104 379.412 131.264 379.202 130.508 378.782C129.764 378.362 129.176 377.768 128.744 377C128.324 376.22 128.114 375.32 128.114 374.3C128.114 373.292 128.33 372.404 128.762 371.636C129.206 370.856 129.806 370.262 130.562 369.854C131.318 369.434 132.164 369.224 133.1 369.224C134.036 369.224 134.882 369.434 135.638 369.854C136.394 370.262 136.988 370.85 137.42 371.618C137.864 372.386 138.086 373.28 138.086 374.3C138.086 375.32 137.858 376.22 137.402 377C136.958 377.768 136.352 378.362 135.584 378.782C134.816 379.202 133.964 379.412 133.028 379.412ZM133.028 377.972C133.616 377.972 134.168 377.834 134.684 377.558C135.2 377.282 135.614 376.868 135.926 376.316C136.25 375.764 136.412 375.092 136.412 374.3C136.412 373.508 136.256 372.836 135.944 372.284C135.632 371.732 135.224 371.324 134.72 371.06C134.216 370.784 133.67 370.646 133.082 370.646C132.482 370.646 131.93 370.784 131.426 371.06C130.934 371.324 130.538 371.732 130.238 372.284C129.938 372.836 129.788 373.508 129.788 374.3C129.788 375.104 129.932 375.782 130.22 376.334C130.52 376.886 130.916 377.3 131.408 377.576C131.9 377.84 132.44 377.972 133.028 377.972ZM145.046 369.206C146.246 369.206 147.218 369.572 147.962 370.304C148.706 371.024 149.078 372.068 149.078 373.436V379.25H147.458V373.67C147.458 372.686 147.212 371.936 146.72 371.42C146.228 370.892 145.556 370.628 144.704 370.628C143.84 370.628 143.15 370.898 142.634 371.438C142.13 371.978 141.878 372.764 141.878 373.796V379.25H140.24V369.386H141.878V370.79C142.202 370.286 142.64 369.896 143.192 369.62C143.756 369.344 144.374 369.206 145.046 369.206ZM155.245 379.412C154.489 379.412 153.811 379.286 153.211 379.034C152.611 378.77 152.137 378.41 151.789 377.954C151.441 377.486 151.249 376.952 151.213 376.352H152.905C152.953 376.844 153.181 377.246 153.589 377.558C154.009 377.87 154.555 378.026 155.227 378.026C155.851 378.026 156.343 377.888 156.703 377.612C157.063 377.336 157.243 376.988 157.243 376.568C157.243 376.136 157.051 375.818 156.667 375.614C156.283 375.398 155.689 375.188 154.885 374.984C154.153 374.792 153.553 374.6 153.085 374.408C152.629 374.204 152.233 373.91 151.897 373.526C151.573 373.13 151.411 372.614 151.411 371.978C151.411 371.474 151.561 371.012 151.861 370.592C152.161 370.172 152.587 369.842 153.139 369.602C153.691 369.35 154.321 369.224 155.029 369.224C156.121 369.224 157.003 369.5 157.675 370.052C158.347 370.604 158.707 371.36 158.755 372.32H157.117C157.081 371.804 156.871 371.39 156.487 371.078C156.115 370.766 155.611 370.61 154.975 370.61C154.387 370.61 153.919 370.736 153.571 370.988C153.223 371.24 153.049 371.57 153.049 371.978C153.049 372.302 153.151 372.572 153.355 372.788C153.571 372.992 153.835 373.16 154.147 373.292C154.471 373.412 154.915 373.55 155.479 373.706C156.187 373.898 156.763 374.09 157.207 374.282C157.651 374.462 158.029 374.738 158.341 375.11C158.665 375.482 158.833 375.968 158.845 376.568C158.845 377.108 158.695 377.594 158.395 378.026C158.095 378.458 157.669 378.8 157.117 379.052C156.577 379.292 155.953 379.412 155.245 379.412ZM163.281 366.704L163.083 375.704H161.715L161.517 366.704H163.281ZM162.471 379.358C162.159 379.358 161.895 379.25 161.679 379.034C161.463 378.818 161.355 378.554 161.355 378.242C161.355 377.93 161.463 377.666 161.679 377.45C161.895 377.234 162.159 377.126 162.471 377.126C162.771 377.126 163.023 377.234 163.227 377.45C163.443 377.666 163.551 377.93 163.551 378.242C163.551 378.554 163.443 378.818 163.227 379.034C163.023 379.25 162.771 379.358 162.471 379.358ZM179.814 369.386L173.874 383.894H172.182L174.126 379.142L170.148 369.386H171.966L175.062 377.378L178.122 369.386H179.814ZM185.762 379.412C184.838 379.412 183.998 379.202 183.242 378.782C182.498 378.362 181.91 377.768 181.478 377C181.058 376.22 180.848 375.32 180.848 374.3C180.848 373.292 181.064 372.404 181.496 371.636C181.94 370.856 182.54 370.262 183.296 369.854C184.052 369.434 184.898 369.224 185.834 369.224C186.77 369.224 187.616 369.434 188.372 369.854C189.128 370.262 189.722 370.85 190.154 371.618C190.598 372.386 190.82 373.28 190.82 374.3C190.82 375.32 190.592 376.22 190.136 377C189.692 377.768 189.086 378.362 188.318 378.782C187.55 379.202 186.698 379.412 185.762 379.412ZM185.762 377.972C186.35 377.972 186.902 377.834 187.418 377.558C187.934 377.282 188.348 376.868 188.66 376.316C188.984 375.764 189.146 375.092 189.146 374.3C189.146 373.508 188.99 372.836 188.678 372.284C188.366 371.732 187.958 371.324 187.454 371.06C186.95 370.784 186.404 370.646 185.816 370.646C185.216 370.646 184.664 370.784 184.16 371.06C183.668 371.324 183.272 371.732 182.972 372.284C182.672 372.836 182.522 373.508 182.522 374.3C182.522 375.104 182.666 375.782 182.954 376.334C183.254 376.886 183.65 377.3 184.142 377.576C184.634 377.84 185.174 377.972 185.762 377.972ZM201.722 369.386V379.25H200.084V377.792C199.772 378.296 199.334 378.692 198.77 378.98C198.218 379.256 197.606 379.394 196.934 379.394C196.166 379.394 195.476 379.238 194.864 378.926C194.252 378.602 193.766 378.122 193.406 377.486C193.058 376.85 192.884 376.076 192.884 375.164V369.386H194.504V374.948C194.504 375.92 194.75 376.67 195.242 377.198C195.734 377.714 196.406 377.972 197.258 377.972C198.134 377.972 198.824 377.702 199.328 377.162C199.832 376.622 200.084 375.836 200.084 374.804V369.386H201.722ZM214.182 369.206C214.926 369.206 215.598 369.368 216.198 369.692C216.798 370.004 217.266 370.478 217.602 371.114C217.95 371.75 218.124 372.524 218.124 373.436V379.25H216.504V373.67C216.504 372.686 216.258 371.936 215.766 371.42C215.274 370.892 214.602 370.628 213.75 370.628C212.886 370.628 212.196 370.898 211.68 371.438C211.176 371.978 210.924 372.764 210.924 373.796V379.25H209.286V365.93H210.924V370.79C211.248 370.286 211.692 369.896 212.256 369.62C212.832 369.344 213.474 369.206 214.182 369.206ZM220.188 374.282C220.188 373.274 220.392 372.392 220.8 371.636C221.208 370.868 221.766 370.274 222.474 369.854C223.194 369.434 223.992 369.224 224.868 369.224C225.732 369.224 226.482 369.41 227.118 369.782C227.754 370.154 228.228 370.622 228.54 371.186V369.386H230.196V379.25H228.54V377.414C228.216 377.99 227.73 378.47 227.082 378.854C226.446 379.226 225.702 379.412 224.85 379.412C223.974 379.412 223.182 379.196 222.474 378.764C221.766 378.332 221.208 377.726 220.8 376.946C220.392 376.166 220.188 375.278 220.188 374.282ZM228.54 374.3C228.54 373.556 228.39 372.908 228.09 372.356C227.79 371.804 227.382 371.384 226.866 371.096C226.362 370.796 225.804 370.646 225.192 370.646C224.58 370.646 224.022 370.79 223.518 371.078C223.014 371.366 222.612 371.786 222.312 372.338C222.012 372.89 221.862 373.538 221.862 374.282C221.862 375.038 222.012 375.698 222.312 376.262C222.612 376.814 223.014 377.24 223.518 377.54C224.022 377.828 224.58 377.972 225.192 377.972C225.804 377.972 226.362 377.828 226.866 377.54C227.382 377.24 227.79 376.814 228.09 376.262C228.39 375.698 228.54 375.044 228.54 374.3ZM236.636 377.738L239.696 369.386H241.442L237.572 379.25H235.664L231.794 369.386H233.558L236.636 377.738ZM252.054 373.94C252.054 374.252 252.036 374.582 252 374.93H244.116C244.176 375.902 244.506 376.664 245.106 377.216C245.718 377.756 246.456 378.026 247.32 378.026C248.028 378.026 248.616 377.864 249.084 377.54C249.564 377.204 249.9 376.76 250.092 376.208H251.856C251.592 377.156 251.064 377.93 250.272 378.53C249.48 379.118 248.496 379.412 247.32 379.412C246.384 379.412 245.544 379.202 244.8 378.782C244.068 378.362 243.492 377.768 243.072 377C242.652 376.22 242.442 375.32 242.442 374.3C242.442 373.28 242.646 372.386 243.054 371.618C243.462 370.85 244.032 370.262 244.764 369.854C245.508 369.434 246.36 369.224 247.32 369.224C248.256 369.224 249.084 369.428 249.804 369.836C250.524 370.244 251.076 370.808 251.46 371.528C251.856 372.236 252.054 373.04 252.054 373.94ZM250.362 373.598C250.362 372.974 250.224 372.44 249.948 371.996C249.672 371.54 249.294 371.198 248.814 370.97C248.346 370.73 247.824 370.61 247.248 370.61C246.42 370.61 245.712 370.874 245.124 371.402C244.548 371.93 244.218 372.662 244.134 373.598H250.362ZM262.507 379.412C261.751 379.412 261.073 379.286 260.473 379.034C259.873 378.77 259.399 378.41 259.051 377.954C258.703 377.486 258.511 376.952 258.475 376.352H260.167C260.215 376.844 260.443 377.246 260.851 377.558C261.271 377.87 261.817 378.026 262.489 378.026C263.113 378.026 263.605 377.888 263.965 377.612C264.325 377.336 264.505 376.988 264.505 376.568C264.505 376.136 264.313 375.818 263.929 375.614C263.545 375.398 262.951 375.188 262.147 374.984C261.415 374.792 260.815 374.6 260.347 374.408C259.891 374.204 259.495 373.91 259.159 373.526C258.835 373.13 258.673 372.614 258.673 371.978C258.673 371.474 258.823 371.012 259.123 370.592C259.423 370.172 259.849 369.842 260.401 369.602C260.953 369.35 261.583 369.224 262.291 369.224C263.383 369.224 264.265 369.5 264.937 370.052C265.609 370.604 265.969 371.36 266.017 372.32H264.379C264.343 371.804 264.133 371.39 263.749 371.078C263.377 370.766 262.873 370.61 262.237 370.61C261.649 370.61 261.181 370.736 260.833 370.988C260.485 371.24 260.311 371.57 260.311 371.978C260.311 372.302 260.413 372.572 260.617 372.788C260.833 372.992 261.097 373.16 261.409 373.292C261.733 373.412 262.177 373.55 262.741 373.706C263.449 373.898 264.025 374.09 264.469 374.282C264.913 374.462 265.291 374.738 265.603 375.11C265.927 375.482 266.095 375.968 266.107 376.568C266.107 377.108 265.957 377.594 265.657 378.026C265.357 378.458 264.931 378.8 264.379 379.052C263.839 379.292 263.215 379.412 262.507 379.412ZM277.167 369.386V379.25H275.529V377.792C275.217 378.296 274.779 378.692 274.215 378.98C273.663 379.256 273.051 379.394 272.379 379.394C271.611 379.394 270.921 379.238 270.309 378.926C269.697 378.602 269.211 378.122 268.851 377.486C268.503 376.85 268.329 376.076 268.329 375.164V369.386H269.949V374.948C269.949 375.92 270.195 376.67 270.687 377.198C271.179 377.714 271.851 377.972 272.703 377.972C273.579 377.972 274.269 377.702 274.773 377.162C275.277 376.622 275.529 375.836 275.529 374.804V369.386H277.167ZM279.321 374.3C279.321 373.28 279.525 372.392 279.933 371.636C280.341 370.868 280.905 370.274 281.625 369.854C282.357 369.434 283.191 369.224 284.127 369.224C285.339 369.224 286.335 369.518 287.115 370.106C287.907 370.694 288.429 371.51 288.681 372.554H286.917C286.749 371.954 286.419 371.48 285.927 371.132C285.447 370.784 284.847 370.61 284.127 370.61C283.191 370.61 282.435 370.934 281.859 371.582C281.283 372.218 280.995 373.124 280.995 374.3C280.995 375.488 281.283 376.406 281.859 377.054C282.435 377.702 283.191 378.026 284.127 378.026C284.847 378.026 285.447 377.858 285.927 377.522C286.407 377.186 286.737 376.706 286.917 376.082H288.681C288.417 377.09 287.889 377.9 287.097 378.512C286.305 379.112 285.315 379.412 284.127 379.412C283.191 379.412 282.357 379.202 281.625 378.782C280.905 378.362 280.341 377.768 279.933 377C279.525 376.232 279.321 375.332 279.321 374.3ZM290.254 374.3C290.254 373.28 290.458 372.392 290.866 371.636C291.274 370.868 291.838 370.274 292.558 369.854C293.29 369.434 294.124 369.224 295.06 369.224C296.272 369.224 297.268 369.518 298.048 370.106C298.84 370.694 299.362 371.51 299.614 372.554H297.85C297.682 371.954 297.352 371.48 296.86 371.132C296.38 370.784 295.78 370.61 295.06 370.61C294.124 370.61 293.368 370.934 292.792 371.582C292.216 372.218 291.928 373.124 291.928 374.3C291.928 375.488 292.216 376.406 292.792 377.054C293.368 377.702 294.124 378.026 295.06 378.026C295.78 378.026 296.38 377.858 296.86 377.522C297.34 377.186 297.67 376.706 297.85 376.082H299.614C299.35 377.09 298.822 377.9 298.03 378.512C297.238 379.112 296.248 379.412 295.06 379.412C294.124 379.412 293.29 379.202 292.558 378.782C291.838 378.362 291.274 377.768 290.866 377C290.458 376.232 290.254 375.332 290.254 374.3ZM310.8 373.94C310.8 374.252 310.782 374.582 310.746 374.93H302.862C302.922 375.902 303.252 376.664 303.852 377.216C304.464 377.756 305.202 378.026 306.066 378.026C306.774 378.026 307.362 377.864 307.83 377.54C308.31 377.204 308.646 376.76 308.838 376.208H310.602C310.338 377.156 309.81 377.93 309.018 378.53C308.226 379.118 307.242 379.412 306.066 379.412C305.13 379.412 304.29 379.202 303.546 378.782C302.814 378.362 302.238 377.768 301.818 377C301.398 376.22 301.188 375.32 301.188 374.3C301.188 373.28 301.392 372.386 301.8 371.618C302.208 370.85 302.778 370.262 303.51 369.854C304.254 369.434 305.106 369.224 306.066 369.224C307.002 369.224 307.83 369.428 308.55 369.836C309.27 370.244 309.822 370.808 310.206 371.528C310.602 372.236 310.8 373.04 310.8 373.94ZM309.108 373.598C309.108 372.974 308.97 372.44 308.694 371.996C308.418 371.54 308.04 371.198 307.56 370.97C307.092 370.73 306.57 370.61 305.994 370.61C305.166 370.61 304.458 370.874 303.87 371.402C303.294 371.93 302.964 372.662 302.88 373.598H309.108ZM316.454 379.412C315.698 379.412 315.02 379.286 314.42 379.034C313.82 378.77 313.346 378.41 312.998 377.954C312.65 377.486 312.458 376.952 312.422 376.352H314.114C314.162 376.844 314.39 377.246 314.798 377.558C315.218 377.87 315.764 378.026 316.436 378.026C317.06 378.026 317.552 377.888 317.912 377.612C318.272 377.336 318.452 376.988 318.452 376.568C318.452 376.136 318.26 375.818 317.876 375.614C317.492 375.398 316.898 375.188 316.094 374.984C315.362 374.792 314.762 374.6 314.294 374.408C313.838 374.204 313.442 373.91 313.106 373.526C312.782 373.13 312.62 372.614 312.62 371.978C312.62 371.474 312.77 371.012 313.07 370.592C313.37 370.172 313.796 369.842 314.348 369.602C314.9 369.35 315.53 369.224 316.238 369.224C317.33 369.224 318.212 369.5 318.884 370.052C319.556 370.604 319.916 371.36 319.964 372.32H318.326C318.29 371.804 318.08 371.39 317.696 371.078C317.324 370.766 316.82 370.61 316.184 370.61C315.596 370.61 315.128 370.736 314.78 370.988C314.432 371.24 314.258 371.57 314.258 371.978C314.258 372.302 314.36 372.572 314.564 372.788C314.78 372.992 315.044 373.16 315.356 373.292C315.68 373.412 316.124 373.55 316.688 373.706C317.396 373.898 317.972 374.09 318.416 374.282C318.86 374.462 319.238 374.738 319.55 375.11C319.874 375.482 320.042 375.968 320.054 376.568C320.054 377.108 319.904 377.594 319.604 378.026C319.304 378.458 318.878 378.8 318.326 379.052C317.786 379.292 317.162 379.412 316.454 379.412ZM325.858 379.412C325.102 379.412 324.424 379.286 323.824 379.034C323.224 378.77 322.75 378.41 322.402 377.954C322.054 377.486 321.862 376.952 321.826 376.352H323.518C323.566 376.844 323.794 377.246 324.202 377.558C324.622 377.87 325.168 378.026 325.84 378.026C326.464 378.026 326.956 377.888 327.316 377.612C327.676 377.336 327.856 376.988 327.856 376.568C327.856 376.136 327.664 375.818 327.28 375.614C326.896 375.398 326.302 375.188 325.498 374.984C324.766 374.792 324.166 374.6 323.698 374.408C323.242 374.204 322.846 373.91 322.51 373.526C322.186 373.13 322.024 372.614 322.024 371.978C322.024 371.474 322.174 371.012 322.474 370.592C322.774 370.172 323.2 369.842 323.752 369.602C324.304 369.35 324.934 369.224 325.642 369.224C326.734 369.224 327.616 369.5 328.288 370.052C328.96 370.604 329.32 371.36 329.368 372.32H327.73C327.694 371.804 327.484 371.39 327.1 371.078C326.728 370.766 326.224 370.61 325.588 370.61C325 370.61 324.532 370.736 324.184 370.988C323.836 371.24 323.662 371.57 323.662 371.978C323.662 372.302 323.764 372.572 323.968 372.788C324.184 372.992 324.448 373.16 324.76 373.292C325.084 373.412 325.528 373.55 326.092 373.706C326.8 373.898 327.376 374.09 327.82 374.282C328.264 374.462 328.642 374.738 328.954 375.11C329.278 375.482 329.446 375.968 329.458 376.568C329.458 377.108 329.308 377.594 329.008 378.026C328.708 378.458 328.282 378.8 327.73 379.052C327.19 379.292 326.566 379.412 325.858 379.412ZM335.785 370.736H333.715V379.25H332.077V370.736H330.799V369.386H332.077V368.684C332.077 367.58 332.359 366.776 332.923 366.272C333.499 365.756 334.417 365.498 335.677 365.498V366.866C334.957 366.866 334.447 367.01 334.147 367.298C333.859 367.574 333.715 368.036 333.715 368.684V369.386H335.785V370.736ZM346.443 369.386V379.25H344.805V377.792C344.493 378.296 344.055 378.692 343.491 378.98C342.939 379.256 342.327 379.394 341.655 379.394C340.887 379.394 340.197 379.238 339.585 378.926C338.973 378.602 338.487 378.122 338.127 377.486C337.779 376.85 337.605 376.076 337.605 375.164V369.386H339.225V374.948C339.225 375.92 339.471 376.67 339.963 377.198C340.455 377.714 341.127 377.972 341.979 377.972C342.855 377.972 343.545 377.702 344.049 377.162C344.553 376.622 344.805 375.836 344.805 374.804V369.386H346.443ZM350.846 365.93V379.25H349.208V365.93H350.846ZM355.276 365.93V379.25H353.638V365.93H355.276ZM366.564 369.386L360.624 383.894H358.932L360.876 379.142L356.898 369.386H358.716L361.812 377.378L364.872 369.386H366.564ZM372.397 374.3C372.397 373.28 372.601 372.392 373.009 371.636C373.417 370.868 373.981 370.274 374.701 369.854C375.433 369.434 376.267 369.224 377.203 369.224C378.415 369.224 379.411 369.518 380.191 370.106C380.983 370.694 381.505 371.51 381.757 372.554H379.993C379.825 371.954 379.495 371.48 379.003 371.132C378.523 370.784 377.923 370.61 377.203 370.61C376.267 370.61 375.511 370.934 374.935 371.582C374.359 372.218 374.071 373.124 374.071 374.3C374.071 375.488 374.359 376.406 374.935 377.054C375.511 377.702 376.267 378.026 377.203 378.026C377.923 378.026 378.523 377.858 379.003 377.522C379.483 377.186 379.813 376.706 379.993 376.082H381.757C381.493 377.09 380.965 377.9 380.173 378.512C379.381 379.112 378.391 379.412 377.203 379.412C376.267 379.412 375.433 379.202 374.701 378.782C373.981 378.362 373.417 377.768 373.009 377C372.601 376.232 372.397 375.332 372.397 374.3ZM388.245 379.412C387.321 379.412 386.481 379.202 385.725 378.782C384.981 378.362 384.393 377.768 383.961 377C383.541 376.22 383.331 375.32 383.331 374.3C383.331 373.292 383.547 372.404 383.979 371.636C384.423 370.856 385.023 370.262 385.779 369.854C386.535 369.434 387.381 369.224 388.317 369.224C389.253 369.224 390.099 369.434 390.855 369.854C391.611 370.262 392.205 370.85 392.637 371.618C393.081 372.386 393.303 373.28 393.303 374.3C393.303 375.32 393.075 376.22 392.619 377C392.175 377.768 391.569 378.362 390.801 378.782C390.033 379.202 389.181 379.412 388.245 379.412ZM388.245 377.972C388.833 377.972 389.385 377.834 389.901 377.558C390.417 377.282 390.831 376.868 391.143 376.316C391.467 375.764 391.629 375.092 391.629 374.3C391.629 373.508 391.473 372.836 391.161 372.284C390.849 371.732 390.441 371.324 389.937 371.06C389.433 370.784 388.887 370.646 388.299 370.646C387.699 370.646 387.147 370.784 386.643 371.06C386.151 371.324 385.755 371.732 385.455 372.284C385.155 372.836 385.005 373.508 385.005 374.3C385.005 375.104 385.149 375.782 385.437 376.334C385.737 376.886 386.133 377.3 386.625 377.576C387.117 377.84 387.657 377.972 388.245 377.972ZM407.318 369.206C408.086 369.206 408.77 369.368 409.37 369.692C409.97 370.004 410.444 370.478 410.792 371.114C411.14 371.75 411.314 372.524 411.314 373.436V379.25H409.694V373.67C409.694 372.686 409.448 371.936 408.956 371.42C408.476 370.892 407.822 370.628 406.994 370.628C406.142 370.628 405.464 370.904 404.96 371.456C404.456 371.996 404.204 372.782 404.204 373.814V379.25H402.584V373.67C402.584 372.686 402.338 371.936 401.846 371.42C401.366 370.892 400.712 370.628 399.884 370.628C399.032 370.628 398.354 370.904 397.85 371.456C397.346 371.996 397.094 372.782 397.094 373.814V379.25H395.456V369.386H397.094V370.808C397.418 370.292 397.85 369.896 398.39 369.62C398.942 369.344 399.548 369.206 400.208 369.206C401.036 369.206 401.768 369.392 402.404 369.764C403.04 370.136 403.514 370.682 403.826 371.402C404.102 370.706 404.558 370.166 405.194 369.782C405.83 369.398 406.538 369.206 407.318 369.206ZM415.639 371.204C415.963 370.64 416.443 370.172 417.079 369.8C417.727 369.416 418.477 369.224 419.329 369.224C420.205 369.224 420.997 369.434 421.705 369.854C422.425 370.274 422.989 370.868 423.397 371.636C423.805 372.392 424.009 373.274 424.009 374.282C424.009 375.278 423.805 376.166 423.397 376.946C422.989 377.726 422.425 378.332 421.705 378.764C420.997 379.196 420.205 379.412 419.329 379.412C418.489 379.412 417.745 379.226 417.097 378.854C416.461 378.47 415.975 377.996 415.639 377.432V383.93H414.001V369.386H415.639V371.204ZM422.335 374.282C422.335 373.538 422.185 372.89 421.885 372.338C421.585 371.786 421.177 371.366 420.661 371.078C420.157 370.79 419.599 370.646 418.987 370.646C418.387 370.646 417.829 370.796 417.313 371.096C416.809 371.384 416.401 371.81 416.089 372.374C415.789 372.926 415.639 373.568 415.639 374.3C415.639 375.044 415.789 375.698 416.089 376.262C416.401 376.814 416.809 377.24 417.313 377.54C417.829 377.828 418.387 377.972 418.987 377.972C419.599 377.972 420.157 377.828 420.661 377.54C421.177 377.24 421.585 376.814 421.885 376.262C422.185 375.698 422.335 375.038 422.335 374.282ZM427.803 365.93V379.25H426.165V365.93H427.803ZM439.595 373.94C439.595 374.252 439.577 374.582 439.541 374.93H431.657C431.717 375.902 432.047 376.664 432.647 377.216C433.259 377.756 433.997 378.026 434.861 378.026C435.569 378.026 436.157 377.864 436.625 377.54C437.105 377.204 437.441 376.76 437.633 376.208H439.397C439.133 377.156 438.605 377.93 437.813 378.53C437.021 379.118 436.037 379.412 434.861 379.412C433.925 379.412 433.085 379.202 432.341 378.782C431.609 378.362 431.033 377.768 430.613 377C430.193 376.22 429.983 375.32 429.983 374.3C429.983 373.28 430.187 372.386 430.595 371.618C431.003 370.85 431.573 370.262 432.305 369.854C433.049 369.434 433.901 369.224 434.861 369.224C435.797 369.224 436.625 369.428 437.345 369.836C438.065 370.244 438.617 370.808 439.001 371.528C439.397 372.236 439.595 373.04 439.595 373.94ZM437.903 373.598C437.903 372.974 437.765 372.44 437.489 371.996C437.213 371.54 436.835 371.198 436.355 370.97C435.887 370.73 435.365 370.61 434.789 370.61C433.961 370.61 433.253 370.874 432.665 371.402C432.089 371.93 431.759 372.662 431.675 373.598H437.903ZM443.755 370.736V376.55C443.755 377.03 443.857 377.372 444.061 377.576C444.265 377.768 444.619 377.864 445.123 377.864H446.329V379.25H444.853C443.941 379.25 443.257 379.04 442.801 378.62C442.345 378.2 442.117 377.51 442.117 376.55V370.736H440.839V369.386H442.117V366.902H443.755V369.386H446.329V370.736H443.755ZM457.314 373.94C457.314 374.252 457.296 374.582 457.26 374.93H449.376C449.436 375.902 449.766 376.664 450.366 377.216C450.978 377.756 451.716 378.026 452.58 378.026C453.288 378.026 453.876 377.864 454.344 377.54C454.824 377.204 455.16 376.76 455.352 376.208H457.116C456.852 377.156 456.324 377.93 455.532 378.53C454.74 379.118 453.756 379.412 452.58 379.412C451.644 379.412 450.804 379.202 450.06 378.782C449.328 378.362 448.752 377.768 448.332 377C447.912 376.22 447.702 375.32 447.702 374.3C447.702 373.28 447.906 372.386 448.314 371.618C448.722 370.85 449.292 370.262 450.024 369.854C450.768 369.434 451.62 369.224 452.58 369.224C453.516 369.224 454.344 369.428 455.064 369.836C455.784 370.244 456.336 370.808 456.72 371.528C457.116 372.236 457.314 373.04 457.314 373.94ZM455.622 373.598C455.622 372.974 455.484 372.44 455.208 371.996C454.932 371.54 454.554 371.198 454.074 370.97C453.606 370.73 453.084 370.61 452.508 370.61C451.68 370.61 450.972 370.874 450.384 371.402C449.808 371.93 449.478 372.662 449.394 373.598H455.622ZM458.864 374.282C458.864 373.274 459.068 372.392 459.476 371.636C459.884 370.868 460.442 370.274 461.15 369.854C461.87 369.434 462.674 369.224 463.562 369.224C464.33 369.224 465.044 369.404 465.704 369.764C466.364 370.112 466.868 370.574 467.216 371.15V365.93H468.872V379.25H467.216V377.396C466.892 377.984 466.412 378.47 465.776 378.854C465.14 379.226 464.396 379.412 463.544 379.412C462.668 379.412 461.87 379.196 461.15 378.764C460.442 378.332 459.884 377.726 459.476 376.946C459.068 376.166 458.864 375.278 458.864 374.282ZM467.216 374.3C467.216 373.556 467.066 372.908 466.766 372.356C466.466 371.804 466.058 371.384 465.542 371.096C465.038 370.796 464.48 370.646 463.868 370.646C463.256 370.646 462.698 370.79 462.194 371.078C461.69 371.366 461.288 371.786 460.988 372.338C460.688 372.89 460.538 373.538 460.538 374.282C460.538 375.038 460.688 375.698 460.988 376.262C461.288 376.814 461.69 377.24 462.194 377.54C462.698 377.828 463.256 377.972 463.868 377.972C464.48 377.972 465.038 377.828 465.542 377.54C466.058 377.24 466.466 376.814 466.766 376.262C467.066 375.698 467.216 375.044 467.216 374.3ZM478.437 370.736V376.55C478.437 377.03 478.539 377.372 478.743 377.576C478.947 377.768 479.301 377.864 479.805 377.864H481.011V379.25H479.535C478.623 379.25 477.939 379.04 477.483 378.62C477.027 378.2 476.799 377.51 476.799 376.55V370.736H475.521V369.386H476.799V366.902H478.437V369.386H481.011V370.736H478.437ZM487.891 369.206C488.635 369.206 489.307 369.368 489.907 369.692C490.507 370.004 490.975 370.478 491.311 371.114C491.659 371.75 491.833 372.524 491.833 373.436V379.25H490.213V373.67C490.213 372.686 489.967 371.936 489.475 371.42C488.983 370.892 488.311 370.628 487.459 370.628C486.595 370.628 485.905 370.898 485.389 371.438C484.885 371.978 484.633 372.764 484.633 373.796V379.25H482.995V365.93H484.633V370.79C484.957 370.286 485.401 369.896 485.965 369.62C486.541 369.344 487.183 369.206 487.891 369.206ZM503.509 373.94C503.509 374.252 503.491 374.582 503.455 374.93H495.571C495.631 375.902 495.961 376.664 496.561 377.216C497.173 377.756 497.911 378.026 498.775 378.026C499.483 378.026 500.071 377.864 500.539 377.54C501.019 377.204 501.355 376.76 501.547 376.208H503.311C503.047 377.156 502.519 377.93 501.727 378.53C500.935 379.118 499.951 379.412 498.775 379.412C497.839 379.412 496.999 379.202 496.255 378.782C495.523 378.362 494.947 377.768 494.527 377C494.107 376.22 493.897 375.32 493.897 374.3C493.897 373.28 494.101 372.386 494.509 371.618C494.917 370.85 495.487 370.262 496.219 369.854C496.963 369.434 497.815 369.224 498.775 369.224C499.711 369.224 500.539 369.428 501.259 369.836C501.979 370.244 502.531 370.808 502.915 371.528C503.311 372.236 503.509 373.04 503.509 373.94ZM501.817 373.598C501.817 372.974 501.679 372.44 501.403 371.996C501.127 371.54 500.749 371.198 500.269 370.97C499.801 370.73 499.279 370.61 498.703 370.61C497.875 370.61 497.167 370.874 496.579 371.402C496.003 371.93 495.673 372.662 495.589 373.598H501.817ZM141.561 398.736V404.55C141.561 405.03 141.663 405.372 141.867 405.576C142.071 405.768 142.425 405.864 142.929 405.864H144.135V407.25H142.659C141.747 407.25 141.063 407.04 140.607 406.62C140.151 406.2 139.923 405.51 139.923 404.55V398.736H138.645V397.386H139.923V394.902H141.561V397.386H144.135V398.736H141.561ZM145.507 402.282C145.507 401.274 145.711 400.392 146.119 399.636C146.527 398.868 147.085 398.274 147.793 397.854C148.513 397.434 149.311 397.224 150.187 397.224C151.051 397.224 151.801 397.41 152.437 397.782C153.073 398.154 153.547 398.622 153.859 399.186V397.386H155.515V407.25H153.859V405.414C153.535 405.99 153.049 406.47 152.401 406.854C151.765 407.226 151.021 407.412 150.169 407.412C149.293 407.412 148.501 407.196 147.793 406.764C147.085 406.332 146.527 405.726 146.119 404.946C145.711 404.166 145.507 403.278 145.507 402.282ZM153.859 402.3C153.859 401.556 153.709 400.908 153.409 400.356C153.109 399.804 152.701 399.384 152.185 399.096C151.681 398.796 151.123 398.646 150.511 398.646C149.899 398.646 149.341 398.79 148.837 399.078C148.333 399.366 147.931 399.786 147.631 400.338C147.331 400.89 147.181 401.538 147.181 402.282C147.181 403.038 147.331 403.698 147.631 404.262C147.931 404.814 148.333 405.24 148.837 405.54C149.341 405.828 149.899 405.972 150.511 405.972C151.123 405.972 151.681 405.828 152.185 405.54C152.701 405.24 153.109 404.814 153.409 404.262C153.709 403.698 153.859 403.044 153.859 402.3ZM161.775 407.412C161.019 407.412 160.341 407.286 159.741 407.034C159.141 406.77 158.667 406.41 158.319 405.954C157.971 405.486 157.779 404.952 157.743 404.352H159.435C159.483 404.844 159.711 405.246 160.119 405.558C160.539 405.87 161.085 406.026 161.757 406.026C162.381 406.026 162.873 405.888 163.233 405.612C163.593 405.336 163.773 404.988 163.773 404.568C163.773 404.136 163.581 403.818 163.197 403.614C162.813 403.398 162.219 403.188 161.415 402.984C160.683 402.792 160.083 402.6 159.615 402.408C159.159 402.204 158.763 401.91 158.427 401.526C158.103 401.13 157.941 400.614 157.941 399.978C157.941 399.474 158.091 399.012 158.391 398.592C158.691 398.172 159.117 397.842 159.669 397.602C160.221 397.35 160.851 397.224 161.559 397.224C162.651 397.224 163.533 397.5 164.205 398.052C164.877 398.604 165.237 399.36 165.285 400.32H163.647C163.611 399.804 163.401 399.39 163.017 399.078C162.645 398.766 162.141 398.61 161.505 398.61C160.917 398.61 160.449 398.736 160.101 398.988C159.753 399.24 159.579 399.57 159.579 399.978C159.579 400.302 159.681 400.572 159.885 400.788C160.101 400.992 160.365 401.16 160.677 401.292C161.001 401.412 161.445 401.55 162.009 401.706C162.717 401.898 163.293 402.09 163.737 402.282C164.181 402.462 164.559 402.738 164.871 403.11C165.195 403.482 165.363 403.968 165.375 404.568C165.375 405.108 165.225 405.594 164.925 406.026C164.625 406.458 164.199 406.8 163.647 407.052C163.107 407.292 162.483 407.412 161.775 407.412ZM173.196 407.25L169.326 402.894V407.25H167.688V393.93H169.326V401.76L173.124 397.386H175.41L170.766 402.3L175.428 407.25H173.196ZM181.138 402.282C181.138 401.274 181.342 400.392 181.75 399.636C182.158 398.868 182.716 398.274 183.424 397.854C184.144 397.434 184.942 397.224 185.818 397.224C186.682 397.224 187.432 397.41 188.068 397.782C188.704 398.154 189.178 398.622 189.49 399.186V397.386H191.146V407.25H189.49V405.414C189.166 405.99 188.68 406.47 188.032 406.854C187.396 407.226 186.652 407.412 185.8 407.412C184.924 407.412 184.132 407.196 183.424 406.764C182.716 406.332 182.158 405.726 181.75 404.946C181.342 404.166 181.138 403.278 181.138 402.282ZM189.49 402.3C189.49 401.556 189.34 400.908 189.04 400.356C188.74 399.804 188.332 399.384 187.816 399.096C187.312 398.796 186.754 398.646 186.142 398.646C185.53 398.646 184.972 398.79 184.468 399.078C183.964 399.366 183.562 399.786 183.262 400.338C182.962 400.89 182.812 401.538 182.812 402.282C182.812 403.038 182.962 403.698 183.262 404.262C183.562 404.814 183.964 405.24 184.468 405.54C184.972 405.828 185.53 405.972 186.142 405.972C186.754 405.972 187.312 405.828 187.816 405.54C188.332 405.24 188.74 404.814 189.04 404.262C189.34 403.698 189.49 403.044 189.49 402.3ZM198.72 397.206C199.92 397.206 200.892 397.572 201.636 398.304C202.38 399.024 202.752 400.068 202.752 401.436V407.25H201.132V401.67C201.132 400.686 200.886 399.936 200.394 399.42C199.902 398.892 199.23 398.628 198.378 398.628C197.514 398.628 196.824 398.898 196.308 399.438C195.804 399.978 195.552 400.764 195.552 401.796V407.25H193.914V397.386H195.552V398.79C195.876 398.286 196.314 397.896 196.866 397.62C197.43 397.344 198.048 397.206 198.72 397.206ZM204.816 402.282C204.816 401.274 205.02 400.392 205.428 399.636C205.836 398.868 206.394 398.274 207.102 397.854C207.822 397.434 208.626 397.224 209.514 397.224C210.282 397.224 210.996 397.404 211.656 397.764C212.316 398.112 212.82 398.574 213.168 399.15V393.93H214.824V407.25H213.168V405.396C212.844 405.984 212.364 406.47 211.728 406.854C211.092 407.226 210.348 407.412 209.496 407.412C208.62 407.412 207.822 407.196 207.102 406.764C206.394 406.332 205.836 405.726 205.428 404.946C205.02 404.166 204.816 403.278 204.816 402.282ZM213.168 402.3C213.168 401.556 213.018 400.908 212.718 400.356C212.418 399.804 212.01 399.384 211.494 399.096C210.99 398.796 210.432 398.646 209.82 398.646C209.208 398.646 208.65 398.79 208.146 399.078C207.642 399.366 207.24 399.786 206.94 400.338C206.64 400.89 206.49 401.538 206.49 402.282C206.49 403.038 206.64 403.698 206.94 404.262C207.24 404.814 207.642 405.24 208.146 405.54C208.65 405.828 209.208 405.972 209.82 405.972C210.432 405.972 210.99 405.828 211.494 405.54C212.01 405.24 212.418 404.814 212.718 404.262C213.018 403.698 213.168 403.044 213.168 402.3ZM230.887 397.386L224.947 411.894H223.255L225.199 407.142L221.221 397.386H223.039L226.135 405.378L229.195 397.386H230.887ZM236.835 407.412C235.911 407.412 235.071 407.202 234.315 406.782C233.571 406.362 232.983 405.768 232.551 405C232.131 404.22 231.921 403.32 231.921 402.3C231.921 401.292 232.137 400.404 232.569 399.636C233.013 398.856 233.613 398.262 234.369 397.854C235.125 397.434 235.971 397.224 236.907 397.224C237.843 397.224 238.689 397.434 239.445 397.854C240.201 398.262 240.795 398.85 241.227 399.618C241.671 400.386 241.893 401.28 241.893 402.3C241.893 403.32 241.665 404.22 241.209 405C240.765 405.768 240.159 406.362 239.391 406.782C238.623 407.202 237.771 407.412 236.835 407.412ZM236.835 405.972C237.423 405.972 237.975 405.834 238.491 405.558C239.007 405.282 239.421 404.868 239.733 404.316C240.057 403.764 240.219 403.092 240.219 402.3C240.219 401.508 240.063 400.836 239.751 400.284C239.439 399.732 239.031 399.324 238.527 399.06C238.023 398.784 237.477 398.646 236.889 398.646C236.289 398.646 235.737 398.784 235.233 399.06C234.741 399.324 234.345 399.732 234.045 400.284C233.745 400.836 233.595 401.508 233.595 402.3C233.595 403.104 233.739 403.782 234.027 404.334C234.327 404.886 234.723 405.3 235.215 405.576C235.707 405.84 236.247 405.972 236.835 405.972ZM252.795 397.386V407.25H251.157V405.792C250.845 406.296 250.407 406.692 249.843 406.98C249.291 407.256 248.679 407.394 248.007 407.394C247.239 407.394 246.549 407.238 245.937 406.926C245.325 406.602 244.839 406.122 244.479 405.486C244.131 404.85 243.957 404.076 243.957 403.164V397.386H245.577V402.948C245.577 403.92 245.823 404.67 246.315 405.198C246.807 405.714 247.479 405.972 248.331 405.972C249.207 405.972 249.897 405.702 250.401 405.162C250.905 404.622 251.157 403.836 251.157 402.804V397.386H252.795ZM264.428 397.224C265.28 397.224 266.024 397.41 266.66 397.782C267.308 398.154 267.788 398.622 268.1 399.186V397.386H269.756V407.466C269.756 408.366 269.564 409.164 269.18 409.86C268.796 410.568 268.244 411.12 267.524 411.516C266.816 411.912 265.988 412.11 265.04 412.11C263.744 412.11 262.664 411.804 261.8 411.192C260.936 410.58 260.426 409.746 260.27 408.69H261.89C262.07 409.29 262.442 409.77 263.006 410.13C263.57 410.502 264.248 410.688 265.04 410.688C265.94 410.688 266.672 410.406 267.236 409.842C267.812 409.278 268.1 408.486 268.1 407.466V405.396C267.776 405.972 267.296 406.452 266.66 406.836C266.024 407.22 265.28 407.412 264.428 407.412C263.552 407.412 262.754 407.196 262.034 406.764C261.326 406.332 260.768 405.726 260.36 404.946C259.952 404.166 259.748 403.278 259.748 402.282C259.748 401.274 259.952 400.392 260.36 399.636C260.768 398.868 261.326 398.274 262.034 397.854C262.754 397.434 263.552 397.224 264.428 397.224ZM268.1 402.3C268.1 401.556 267.95 400.908 267.65 400.356C267.35 399.804 266.942 399.384 266.426 399.096C265.922 398.796 265.364 398.646 264.752 398.646C264.14 398.646 263.582 398.79 263.078 399.078C262.574 399.366 262.172 399.786 261.872 400.338C261.572 400.89 261.422 401.538 261.422 402.282C261.422 403.038 261.572 403.698 261.872 404.262C262.172 404.814 262.574 405.24 263.078 405.54C263.582 405.828 264.14 405.972 264.752 405.972C265.364 405.972 265.922 405.828 266.426 405.54C266.942 405.24 267.35 404.814 267.65 404.262C267.95 403.698 268.1 403.044 268.1 402.3ZM276.826 407.412C275.902 407.412 275.062 407.202 274.306 406.782C273.562 406.362 272.974 405.768 272.542 405C272.122 404.22 271.912 403.32 271.912 402.3C271.912 401.292 272.128 400.404 272.56 399.636C273.004 398.856 273.604 398.262 274.36 397.854C275.116 397.434 275.962 397.224 276.898 397.224C277.834 397.224 278.68 397.434 279.436 397.854C280.192 398.262 280.786 398.85 281.218 399.618C281.662 400.386 281.884 401.28 281.884 402.3C281.884 403.32 281.656 404.22 281.2 405C280.756 405.768 280.15 406.362 279.382 406.782C278.614 407.202 277.762 407.412 276.826 407.412ZM276.826 405.972C277.414 405.972 277.966 405.834 278.482 405.558C278.998 405.282 279.412 404.868 279.724 404.316C280.048 403.764 280.21 403.092 280.21 402.3C280.21 401.508 280.054 400.836 279.742 400.284C279.43 399.732 279.022 399.324 278.518 399.06C278.014 398.784 277.468 398.646 276.88 398.646C276.28 398.646 275.728 398.784 275.224 399.06C274.732 399.324 274.336 399.732 274.036 400.284C273.736 400.836 273.586 401.508 273.586 402.3C273.586 403.104 273.73 403.782 274.018 404.334C274.318 404.886 274.714 405.3 275.206 405.576C275.698 405.84 276.238 405.972 276.826 405.972ZM286.035 398.736V404.55C286.035 405.03 286.137 405.372 286.341 405.576C286.545 405.768 286.899 405.864 287.403 405.864H288.609V407.25H287.133C286.221 407.25 285.537 407.04 285.081 406.62C284.625 406.2 284.397 405.51 284.397 404.55V398.736H283.119V397.386H284.397V394.902H286.035V397.386H288.609V398.736H286.035ZM294.925 405.936C296.449 404.712 297.643 403.71 298.507 402.93C299.371 402.138 300.097 401.316 300.685 400.464C301.285 399.6 301.585 398.754 301.585 397.926C301.585 397.146 301.393 396.534 301.009 396.09C300.637 395.634 300.031 395.406 299.191 395.406C298.375 395.406 297.739 395.664 297.283 396.18C296.839 396.684 296.599 397.362 296.563 398.214H294.979C295.027 396.87 295.435 395.832 296.203 395.1C296.971 394.368 297.961 394.002 299.173 394.002C300.409 394.002 301.387 394.344 302.107 395.028C302.839 395.712 303.205 396.654 303.205 397.854C303.205 398.85 302.905 399.822 302.305 400.77C301.717 401.706 301.045 402.534 300.289 403.254C299.533 403.962 298.567 404.79 297.391 405.738H303.583V407.106H294.925V405.936ZM305.476 400.608C305.476 398.544 305.812 396.936 306.484 395.784C307.156 394.62 308.332 394.038 310.012 394.038C311.68 394.038 312.85 394.62 313.522 395.784C314.194 396.936 314.53 398.544 314.53 400.608C314.53 402.708 314.194 404.34 313.522 405.504C312.85 406.668 311.68 407.25 310.012 407.25C308.332 407.25 307.156 406.668 306.484 405.504C305.812 404.34 305.476 402.708 305.476 400.608ZM312.91 400.608C312.91 399.564 312.838 398.682 312.694 397.962C312.562 397.23 312.28 396.642 311.848 396.198C311.428 395.754 310.816 395.532 310.012 395.532C309.196 395.532 308.572 395.754 308.14 396.198C307.72 396.642 307.438 397.23 307.294 397.962C307.162 398.682 307.096 399.564 307.096 400.608C307.096 401.688 307.162 402.594 307.294 403.326C307.438 404.058 307.72 404.646 308.14 405.09C308.572 405.534 309.196 405.756 310.012 405.756C310.816 405.756 311.428 405.534 311.848 405.09C312.28 404.646 312.562 404.058 312.694 403.326C312.838 402.594 312.91 401.688 312.91 400.608ZM323.486 399.204C323.81 398.64 324.29 398.172 324.926 397.8C325.574 397.416 326.324 397.224 327.176 397.224C328.052 397.224 328.844 397.434 329.552 397.854C330.272 398.274 330.836 398.868 331.244 399.636C331.652 400.392 331.856 401.274 331.856 402.282C331.856 403.278 331.652 404.166 331.244 404.946C330.836 405.726 330.272 406.332 329.552 406.764C328.844 407.196 328.052 407.412 327.176 407.412C326.336 407.412 325.592 407.226 324.944 406.854C324.308 406.47 323.822 405.996 323.486 405.432V411.93H321.848V397.386H323.486V399.204ZM330.182 402.282C330.182 401.538 330.032 400.89 329.732 400.338C329.432 399.786 329.024 399.366 328.508 399.078C328.004 398.79 327.446 398.646 326.834 398.646C326.234 398.646 325.676 398.796 325.16 399.096C324.656 399.384 324.248 399.81 323.936 400.374C323.636 400.926 323.486 401.568 323.486 402.3C323.486 403.044 323.636 403.698 323.936 404.262C324.248 404.814 324.656 405.24 325.16 405.54C325.676 405.828 326.234 405.972 326.834 405.972C327.446 405.972 328.004 405.828 328.508 405.54C329.024 405.24 329.432 404.814 329.732 404.262C330.032 403.698 330.182 403.038 330.182 402.282ZM338.314 407.412C337.39 407.412 336.55 407.202 335.794 406.782C335.05 406.362 334.462 405.768 334.03 405C333.61 404.22 333.4 403.32 333.4 402.3C333.4 401.292 333.616 400.404 334.048 399.636C334.492 398.856 335.092 398.262 335.848 397.854C336.604 397.434 337.45 397.224 338.386 397.224C339.322 397.224 340.168 397.434 340.924 397.854C341.68 398.262 342.274 398.85 342.706 399.618C343.15 400.386 343.372 401.28 343.372 402.3C343.372 403.32 343.144 404.22 342.688 405C342.244 405.768 341.638 406.362 340.87 406.782C340.102 407.202 339.25 407.412 338.314 407.412ZM338.314 405.972C338.902 405.972 339.454 405.834 339.97 405.558C340.486 405.282 340.9 404.868 341.212 404.316C341.536 403.764 341.698 403.092 341.698 402.3C341.698 401.508 341.542 400.836 341.23 400.284C340.918 399.732 340.51 399.324 340.006 399.06C339.502 398.784 338.956 398.646 338.368 398.646C337.768 398.646 337.216 398.784 336.712 399.06C336.22 399.324 335.824 399.732 335.524 400.284C335.224 400.836 335.074 401.508 335.074 402.3C335.074 403.104 335.218 403.782 335.506 404.334C335.806 404.886 336.202 405.3 336.694 405.576C337.186 405.84 337.726 405.972 338.314 405.972ZM346.372 395.784C346.06 395.784 345.796 395.676 345.58 395.46C345.364 395.244 345.256 394.98 345.256 394.668C345.256 394.356 345.364 394.092 345.58 393.876C345.796 393.66 346.06 393.552 346.372 393.552C346.672 393.552 346.924 393.66 347.128 393.876C347.344 394.092 347.452 394.356 347.452 394.668C347.452 394.98 347.344 395.244 347.128 395.46C346.924 395.676 346.672 395.784 346.372 395.784ZM347.164 397.386V407.25H345.526V397.386H347.164ZM354.761 397.206C355.961 397.206 356.933 397.572 357.677 398.304C358.421 399.024 358.793 400.068 358.793 401.436V407.25H357.173V401.67C357.173 400.686 356.927 399.936 356.435 399.42C355.943 398.892 355.271 398.628 354.419 398.628C353.555 398.628 352.865 398.898 352.349 399.438C351.845 399.978 351.593 400.764 351.593 401.796V407.25H349.955V397.386H351.593V398.79C351.917 398.286 352.355 397.896 352.907 397.62C353.471 397.344 354.089 397.206 354.761 397.206ZM363.467 398.736V404.55C363.467 405.03 363.569 405.372 363.773 405.576C363.977 405.768 364.331 405.864 364.835 405.864H366.041V407.25H364.565C363.653 407.25 362.969 407.04 362.513 406.62C362.057 406.2 361.829 405.51 361.829 404.55V398.736H360.551V397.386H361.829V394.902H363.467V397.386H366.041V398.736H363.467ZM371.518 407.412C370.762 407.412 370.084 407.286 369.484 407.034C368.884 406.77 368.41 406.41 368.062 405.954C367.714 405.486 367.522 404.952 367.486 404.352H369.178C369.226 404.844 369.454 405.246 369.862 405.558C370.282 405.87 370.828 406.026 371.5 406.026C372.124 406.026 372.616 405.888 372.976 405.612C373.336 405.336 373.516 404.988 373.516 404.568C373.516 404.136 373.324 403.818 372.94 403.614C372.556 403.398 371.962 403.188 371.158 402.984C370.426 402.792 369.826 402.6 369.358 402.408C368.902 402.204 368.506 401.91 368.17 401.526C367.846 401.13 367.684 400.614 367.684 399.978C367.684 399.474 367.834 399.012 368.134 398.592C368.434 398.172 368.86 397.842 369.412 397.602C369.964 397.35 370.594 397.224 371.302 397.224C372.394 397.224 373.276 397.5 373.948 398.052C374.62 398.604 374.98 399.36 375.028 400.32H373.39C373.354 399.804 373.144 399.39 372.76 399.078C372.388 398.766 371.884 398.61 371.248 398.61C370.66 398.61 370.192 398.736 369.844 398.988C369.496 399.24 369.322 399.57 369.322 399.978C369.322 400.302 369.424 400.572 369.628 400.788C369.844 400.992 370.108 401.16 370.42 401.292C370.744 401.412 371.188 401.55 371.752 401.706C372.46 401.898 373.036 402.09 373.48 402.282C373.924 402.462 374.302 402.738 374.614 403.11C374.938 403.482 375.106 403.968 375.118 404.568C375.118 405.108 374.968 405.594 374.668 406.026C374.368 406.458 373.942 406.8 373.39 407.052C372.85 407.292 372.226 407.412 371.518 407.412ZM377.952 407.358C377.64 407.358 377.376 407.25 377.16 407.034C376.944 406.818 376.836 406.554 376.836 406.242C376.836 405.93 376.944 405.666 377.16 405.45C377.376 405.234 377.64 405.126 377.952 405.126C378.252 405.126 378.504 405.234 378.708 405.45C378.924 405.666 379.032 405.93 379.032 406.242C379.032 406.554 378.924 406.818 378.708 407.034C378.504 407.25 378.252 407.358 377.952 407.358Z" fill="#737791"/>
</svg>
