<svg width="113" height="32" viewBox="0 0 113 32" fill="none" xmlns="http://www.w3.org/2000/svg">
<rect opacity="0.15" width="32" height="32" rx="8" fill="white"/>
<path d="M23.2943 17.0417C23.2943 21.0667 20.0276 24.3333 16.0026 24.3333C11.9776 24.3333 8.71094 21.0667 8.71094 17.0417C8.71094 13.0167 11.9776 9.75 16.0026 9.75C20.0276 9.75 23.2943 13.0167 23.2943 17.0417Z" stroke="white" stroke-width="1.5" stroke-linecap="round" stroke-linejoin="round"/>
<path d="M16 12.6667V16.8334" stroke="white" stroke-width="1.5" stroke-linecap="round" stroke-linejoin="round"/>
<path d="M13.5 7.66675H18.5" stroke="white" stroke-width="1.5" stroke-miterlimit="10" stroke-linecap="round" stroke-linejoin="round"/>
<path d="M55.056 7.248V9.96H50.592V24H47.232V9.96H42.768V7.248H55.056ZM56.1636 17.304C56.1636 15.96 56.4276 14.768 56.9556 13.728C57.4996 12.688 58.2276 11.888 59.1396 11.328C60.0676 10.768 61.0996 10.488 62.2356 10.488C63.2276 10.488 64.0916 10.688 64.8276 11.088C65.5796 11.488 66.1796 11.992 66.6276 12.6V10.704H70.0116V24H66.6276V22.056C66.1956 22.68 65.5956 23.2 64.8276 23.616C64.0756 24.016 63.2036 24.216 62.2116 24.216C61.0916 24.216 60.0676 23.928 59.1396 23.352C58.2276 22.776 57.4996 21.968 56.9556 20.928C56.4276 19.872 56.1636 18.664 56.1636 17.304ZM66.6276 17.352C66.6276 16.536 66.4676 15.84 66.1476 15.264C65.8276 14.672 65.3956 14.224 64.8516 13.92C64.3076 13.6 63.7236 13.44 63.0996 13.44C62.4756 13.44 61.8996 13.592 61.3716 13.896C60.8436 14.2 60.4116 14.648 60.0756 15.24C59.7556 15.816 59.5956 16.504 59.5956 17.304C59.5956 18.104 59.7556 18.808 60.0756 19.416C60.4116 20.008 60.8436 20.464 61.3716 20.784C61.9156 21.104 62.4916 21.264 63.0996 21.264C63.7236 21.264 64.3076 21.112 64.8516 20.808C65.3956 20.488 65.8276 20.04 66.1476 19.464C66.4676 18.872 66.6276 18.168 66.6276 17.352ZM77.9012 24.216C76.8132 24.216 75.8372 24.024 74.9732 23.64C74.1092 23.24 73.4212 22.704 72.9092 22.032C72.4132 21.36 72.1412 20.616 72.0932 19.8H75.4772C75.5412 20.312 75.7892 20.736 76.2212 21.072C76.6692 21.408 77.2212 21.576 77.8772 21.576C78.5172 21.576 79.0132 21.448 79.3652 21.192C79.7332 20.936 79.9172 20.608 79.9172 20.208C79.9172 19.776 79.6932 19.456 79.2452 19.248C78.8132 19.024 78.1172 18.784 77.1572 18.528C76.1652 18.288 75.3492 18.04 74.7092 17.784C74.0852 17.528 73.5412 17.136 73.0772 16.608C72.6292 16.08 72.4052 15.368 72.4052 14.472C72.4052 13.736 72.6132 13.064 73.0292 12.456C73.4612 11.848 74.0692 11.368 74.8532 11.016C75.6532 10.664 76.5892 10.488 77.6612 10.488C79.2452 10.488 80.5092 10.888 81.4532 11.688C82.3972 12.472 82.9172 13.536 83.0132 14.88H79.7972C79.7492 14.352 79.5252 13.936 79.1252 13.632C78.7412 13.312 78.2212 13.152 77.5652 13.152C76.9572 13.152 76.4852 13.264 76.1492 13.488C75.8292 13.712 75.6692 14.024 75.6692 14.424C75.6692 14.872 75.8932 15.216 76.3412 15.456C76.7892 15.68 77.4852 15.912 78.4292 16.152C79.3892 16.392 80.1812 16.64 80.8052 16.896C81.4292 17.152 81.9652 17.552 82.4132 18.096C82.8772 18.624 83.1172 19.328 83.1332 20.208C83.1332 20.976 82.9172 21.664 82.4852 22.272C82.0692 22.88 81.4612 23.36 80.6612 23.712C79.8772 24.048 78.9572 24.216 77.9012 24.216ZM93.2833 24L88.7713 18.336V24H85.4113V6.24H88.7713V16.344L93.2353 10.704H97.6033L91.7473 17.376L97.6513 24H93.2833ZM104.851 24.216C103.571 24.216 102.419 23.936 101.395 23.376C100.371 22.8 99.5629 21.992 98.9709 20.952C98.3949 19.912 98.1069 18.712 98.1069 17.352C98.1069 15.992 98.4029 14.792 98.9949 13.752C99.6029 12.712 100.427 11.912 101.467 11.352C102.507 10.776 103.667 10.488 104.947 10.488C106.227 10.488 107.387 10.776 108.427 11.352C109.467 11.912 110.283 12.712 110.875 13.752C111.483 14.792 111.787 15.992 111.787 17.352C111.787 18.712 111.475 19.912 110.851 20.952C110.243 21.992 109.411 22.8 108.355 23.376C107.315 23.936 106.147 24.216 104.851 24.216ZM104.851 21.288C105.459 21.288 106.027 21.144 106.555 20.856C107.099 20.552 107.531 20.104 107.851 19.512C108.171 18.92 108.331 18.2 108.331 17.352C108.331 16.088 107.995 15.12 107.323 14.448C106.667 13.76 105.859 13.416 104.899 13.416C103.939 13.416 103.131 13.76 102.475 14.448C101.835 15.12 101.515 16.088 101.515 17.352C101.515 18.616 101.827 19.592 102.451 20.28C103.091 20.952 103.891 21.288 104.851 21.288Z" fill="white"/>
</svg>
