<svg width="594" height="396" viewBox="0 0 594 396" fill="none" xmlns="http://www.w3.org/2000/svg">
<g clip-path="url(#clip0_18166_2943)">
<path opacity="0.15" d="M136.361 98.453C135.583 98.4528 134.808 98.5509 134.055 98.745C133.954 94.5012 132.384 90.4236 129.612 87.2071C126.84 83.9906 123.037 81.8343 118.853 81.1055C114.668 80.3767 110.36 81.1205 106.663 83.2103C102.966 85.3001 100.108 88.6065 98.5765 92.5661H98C94.6827 92.5661 91.5013 93.883 89.1556 96.2272C86.81 98.5714 85.4922 101.751 85.4922 105.066C85.4922 108.381 86.81 111.561 89.1556 113.905C91.5013 116.249 94.6827 117.566 98 117.566H136.353C138.838 117.495 141.198 116.458 142.931 114.675C144.663 112.893 145.633 110.506 145.633 108.021C145.633 105.536 144.663 103.149 142.931 101.367C141.198 99.5851 138.838 98.5481 136.353 98.4767L136.361 98.453Z" fill="url(#paint0_linear_18166_2943)"/>
<path opacity="0.15" d="M492.148 176.467C491.677 176.469 491.208 176.527 490.751 176.641C490.69 174.063 489.737 171.585 488.053 169.631C486.369 167.677 484.058 166.367 481.516 165.925C478.974 165.483 476.357 165.936 474.111 167.206C471.865 168.477 470.13 170.486 469.202 172.893H468.846C466.832 172.893 464.899 173.692 463.475 175.116C462.05 176.54 461.25 178.471 461.25 180.484C461.25 182.497 462.05 184.428 463.475 185.852C464.899 187.276 466.832 188.076 468.846 188.076H492.148C492.928 188.104 493.706 187.976 494.434 187.697C495.163 187.419 495.828 186.997 496.39 186.456C496.952 185.915 497.399 185.266 497.704 184.548C498.009 183.831 498.166 183.059 498.166 182.279C498.166 181.5 498.009 180.728 497.704 180.01C497.399 179.293 496.952 178.644 496.39 178.103C495.828 177.562 495.163 177.14 494.434 176.861C493.706 176.583 492.928 176.454 492.148 176.483V176.467Z" fill="url(#paint1_linear_18166_2943)"/>
<path opacity="0.15" d="M389.481 28.9378C388.206 28.939 386.936 29.0953 385.698 29.4034C385.528 22.4366 382.946 15.7442 378.394 10.4655C373.841 5.18677 367.599 1.64796 360.729 0.45147C353.859 -0.745022 346.787 0.474753 340.716 3.90316C334.645 7.33157 329.95 12.7567 327.431 19.2551H326.484C321.039 19.2551 315.817 21.4167 311.966 25.2645C308.116 29.1123 305.953 34.3311 305.953 39.7727C305.953 45.2143 308.116 50.4331 311.966 54.2809C315.817 58.1287 321.039 60.2903 326.484 60.2903H389.481C393.64 60.2903 397.629 58.6391 400.57 55.7C403.511 52.7609 405.163 48.7746 405.163 44.618C405.163 40.4615 403.511 36.4751 400.57 33.536C397.629 30.5969 393.64 28.9457 389.481 28.9457V28.9378Z" fill="url(#paint2_linear_18166_2943)"/>
<path d="M161.134 150.134C164.025 150.134 166.369 147.791 166.369 144.902C166.369 142.012 164.025 139.67 161.134 139.67C158.242 139.67 155.898 142.012 155.898 144.902C155.898 147.791 158.242 150.134 161.134 150.134Z" fill="url(#paint3_linear_18166_2943)"/>
<path d="M489.832 255.721C491.668 255.721 493.157 254.233 493.157 252.398C493.157 250.564 491.668 249.076 489.832 249.076C487.996 249.076 486.508 250.564 486.508 252.398C486.508 254.233 487.996 255.721 489.832 255.721Z" fill="url(#paint4_linear_18166_2943)"/>
<path d="M150.005 138.573C151.064 138.573 151.924 137.714 151.924 136.655C151.924 135.596 151.064 134.738 150.005 134.738C148.945 134.738 148.086 135.596 148.086 136.655C148.086 137.714 148.945 138.573 150.005 138.573Z" fill="black"/>
<path d="M208.612 193.213C210.762 193.213 212.505 191.471 212.505 189.323C212.505 187.174 210.762 185.432 208.612 185.432C206.462 185.432 204.719 187.174 204.719 189.323C204.719 191.471 206.462 193.213 208.612 193.213Z" stroke="black" stroke-miterlimit="10"/>
<path d="M227.746 316.721C229.582 316.721 231.071 315.234 231.071 313.399C231.071 311.564 229.582 310.077 227.746 310.077C225.91 310.077 224.422 311.564 224.422 313.399C224.422 315.234 225.91 316.721 227.746 316.721Z" fill="url(#paint5_linear_18166_2943)"/>
<path d="M455.343 154.332C455.343 155.268 455.065 156.184 454.544 156.963C454.024 157.741 453.284 158.348 452.418 158.706C451.552 159.065 450.6 159.159 449.681 158.976C448.762 158.793 447.917 158.342 447.255 157.68C446.592 157.018 446.141 156.174 445.958 155.256C445.775 154.337 445.869 153.385 446.228 152.52C446.586 151.655 447.194 150.915 447.973 150.395C448.752 149.875 449.668 149.597 450.605 149.597C451.862 149.597 453.067 150.096 453.955 150.984C454.844 151.872 455.343 153.076 455.343 154.332Z" fill="url(#paint6_linear_18166_2943)"/>
<path d="M466.178 140.996C466.178 141.487 466.032 141.968 465.759 142.377C465.485 142.785 465.097 143.104 464.642 143.292C464.188 143.48 463.688 143.529 463.205 143.434C462.723 143.338 462.279 143.101 461.932 142.753C461.584 142.406 461.347 141.963 461.251 141.481C461.155 140.998 461.204 140.498 461.392 140.044C461.581 139.59 461.9 139.202 462.309 138.929C462.718 138.656 463.199 138.51 463.69 138.51C464.35 138.512 464.981 138.774 465.447 139.24C465.913 139.706 466.176 140.337 466.178 140.996Z" fill="black"/>
<path d="M411.837 81.3289C411.839 82.6496 411.448 83.9412 410.715 85.0401C409.982 86.139 408.939 86.9959 407.719 87.5024C406.498 88.0089 405.155 88.1423 403.858 87.8856C402.562 87.6289 401.371 86.9937 400.436 86.0603C399.501 85.1269 398.864 83.9374 398.606 82.6421C398.347 81.3469 398.479 80.0041 398.984 78.7837C399.49 77.5634 400.346 76.5203 401.445 75.7863C402.543 75.0524 403.835 74.6606 405.157 74.6606C406.927 74.6606 408.625 75.3629 409.878 76.6132C411.13 77.8636 411.835 79.5596 411.837 81.3289Z" fill="url(#paint7_linear_18166_2943)"/>
<path opacity="0.5" d="M207.73 328.961L164.031 311.174L188.431 251.294L221.359 264.693L227.747 279.861L207.73 328.961Z" fill="url(#paint8_linear_18166_2943)"/>
<path d="M216.969 275.473L227.747 279.861L221.359 264.693L216.969 275.473Z" fill="url(#paint9_linear_18166_2943)"/>
<path d="M205.94 302.714L201.162 291.39L212.502 286.616L210.67 282.275L199.338 287.042L194.561 275.718L190.218 277.548L194.988 288.872L183.656 293.639L185.488 297.987L196.819 293.213L201.597 304.545L205.94 302.714Z" fill="white"/>
<path opacity="0.5" d="M296.591 166.556L263.347 200.023L217.438 154.474L242.477 129.261L258.941 129.206L296.591 166.556Z" fill="url(#paint10_linear_18166_2943)"/>
<path d="M250.744 137.46L258.94 129.206L242.477 129.261L250.744 137.46Z" fill="url(#paint11_linear_18166_2943)"/>
<path d="M271.663 158.104L259.368 158.151L259.321 145.865L254.607 145.88L254.646 158.167L242.352 158.215L242.367 162.926L254.67 162.878L254.709 175.173L259.423 175.149L259.384 162.863L271.679 162.815L271.663 158.104Z" fill="white"/>
<path opacity="0.5" d="M160.392 319.996L127.701 328.961L115.398 284.169L140.027 277.422L150.308 283.27L160.392 319.996Z" fill="url(#paint12_linear_18166_2943)"/>
<path d="M142.234 285.479L150.304 283.27L140.023 277.422L142.234 285.479Z" fill="url(#paint13_linear_18166_2943)"/>
<path d="M140.348 316.248C139.98 316.35 139.651 316.559 139.402 316.849C139.154 317.138 138.997 317.495 138.951 317.873C138.906 318.252 138.974 318.636 139.147 318.976C139.32 319.316 139.59 319.597 139.923 319.783C140.256 319.969 140.637 320.053 141.017 320.022C141.398 319.992 141.76 319.85 142.06 319.613C142.359 319.376 142.581 319.056 142.698 318.693C142.815 318.33 142.822 317.94 142.717 317.574C142.577 317.085 142.249 316.671 141.806 316.423C141.362 316.175 140.838 316.112 140.348 316.248Z" fill="white"/>
<path d="M140.355 286.324C139.363 285.689 138.267 285.233 137.118 284.974C135.532 284.628 133.885 284.682 132.325 285.132C130.042 285.768 128.073 287.224 126.797 289.22C125.455 291.163 124.861 293.526 125.123 295.872C125.36 297.82 126.212 299.642 127.555 301.073L127.887 301.404C127.887 301.404 129.695 303.306 131.117 303.385C131.38 303.424 131.649 303.408 131.906 303.337C132.395 303.198 132.809 302.87 133.058 302.427C133.306 301.983 133.369 301.46 133.233 300.97C133.206 300.894 133.174 300.821 133.138 300.749C133.115 300.692 133.089 300.637 133.059 300.583C132.821 300.159 132.475 299.806 132.056 299.557C130.71 298.802 129.717 297.545 129.293 296.062C129.077 295.303 129.036 294.506 129.172 293.73C129.309 292.954 129.62 292.218 130.082 291.579C130.853 290.356 132.052 289.464 133.446 289.078C134.227 288.846 135.05 288.789 135.855 288.912C136.66 289.035 137.429 289.334 138.105 289.788C139.345 290.526 140.257 291.708 140.655 293.094C141.24 295.136 140.805 297.603 139.353 300.497C139.234 300.741 139.1 301.01 138.95 301.286C138.09 302.676 137.352 304.139 136.747 305.658C136.265 307.341 136.282 309.128 136.794 310.803L137.007 311.537C137.016 311.572 137.029 311.607 137.047 311.639C137.188 312.13 137.519 312.545 137.966 312.792C138.413 313.039 138.94 313.098 139.431 312.957C139.923 312.816 140.337 312.485 140.585 312.038C140.832 311.591 140.892 311.065 140.75 310.574L140.379 309.28C140.22 308.61 140.193 307.916 140.3 307.236C140.305 307.191 140.305 307.146 140.3 307.102C140.921 305.541 141.628 304.016 142.416 302.533C142.902 301.678 143.324 300.789 143.68 299.873C144.869 296.795 145.154 294.165 144.533 291.982C143.896 289.641 142.406 287.622 140.355 286.324Z" fill="white"/>
<path d="M283.211 137.91L294.408 157.512L197.464 212.863C195.746 213.843 194.488 215.466 193.967 217.373C193.445 219.281 193.704 221.317 194.684 223.035L253.346 325.717C254.329 327.435 255.954 328.692 257.864 329.213C259.774 329.734 261.813 329.476 263.533 328.495L420.962 238.636C422.681 237.655 423.938 236.033 424.46 234.125C424.981 232.217 424.723 230.181 423.742 228.464L350.14 99.6999C349.159 97.9829 347.535 96.7257 345.626 96.2048C343.718 95.6839 341.68 95.9419 339.962 96.9221L285.99 127.699C285.134 128.184 284.383 128.834 283.779 129.611C283.176 130.388 282.732 131.277 282.474 132.226C282.215 133.175 282.148 134.166 282.274 135.142C282.4 136.117 282.719 137.058 283.211 137.91Z" fill="url(#paint14_linear_18166_2943)"/>
<path d="M289.036 328.961C289.036 328.961 282.435 312.184 263.586 311.726C263.586 311.726 280.958 304.829 291.16 317.518C291.16 317.518 290.907 306.289 286.872 296.212C286.872 296.212 302.096 308.412 302.096 328.969" fill="black"/>
<path d="M294.184 328.969C294.184 328.969 285.111 300.394 256.984 287.854C256.984 287.854 286.011 290.948 298.835 320.154C298.835 320.154 300.043 302.667 293.087 291.027C293.087 291.027 305.926 298.634 307.205 314.654C307.205 314.654 313.404 298.934 326.504 296.772C326.504 296.772 311.888 305.531 310.482 328.961" fill="url(#paint15_linear_18166_2943)"/>
<path d="M399.375 328.961C399.375 328.961 404.531 306.589 421.611 302.564C421.611 302.564 411.472 308.207 407.642 321.803C407.642 321.803 414.189 312.957 424.067 311.032C424.067 311.032 417.616 315.356 414.497 320.999C414.497 320.999 421.453 316.666 431.829 318.079C431.829 318.079 419.834 318.702 416.21 328.969" fill="url(#paint16_linear_18166_2943)"/>
<path d="M168.065 241.564C168.065 241.564 167.418 241.264 166.312 240.672" stroke="url(#paint17_linear_18166_2943)" stroke-linecap="round" stroke-linejoin="round"/>
<path d="M162.843 238.675C151.899 231.794 128.423 212.413 141.215 178.251C155.326 140.459 218.765 152.154 217.02 167.471C214.201 191.974 153.739 164.646 177.965 118.797C195.092 86.3713 239.959 96.6301 256.139 118.118" stroke="url(#paint18_linear_18166_2943)" stroke-linecap="round" stroke-linejoin="round" stroke-dasharray="5.02 5.02"/>
<path d="M257.195 119.736C257.566 120.289 257.914 120.841 258.238 121.409C258.151 120.841 258.04 120.194 257.914 119.46" stroke="url(#paint19_linear_18166_2943)" stroke-linecap="round" stroke-linejoin="round"/>
<path d="M257.29 115.601C254.352 97.6324 250.436 55.9106 302.836 47.2853C347.6 39.9147 360.558 79.356 363.551 92.0848" stroke="url(#paint20_linear_18166_2943)" stroke-linecap="round" stroke-linejoin="round" stroke-dasharray="4.97 4.97"/>
<path d="M363.945 94.0417C364.19 95.2807 364.293 95.983 364.293 95.983" stroke="url(#paint21_linear_18166_2943)" stroke-linecap="round" stroke-linejoin="round"/>
<path d="M359.253 115.664C359.253 115.664 359.538 116.382 358.961 116.58C358.511 116.738 354.223 115.001 353 114.599C351.199 113.96 350.402 115.388 350.986 116.351C351.428 117.077 356.079 120.407 356.877 121.023C357.786 121.821 358.781 122.514 359.846 123.09C361.176 123.576 362.57 123.865 363.983 123.95L377.32 147.261L389.275 138.541C389.275 138.541 371.003 119.018 369.669 117.613C368.334 116.209 362.246 110.148 359.34 107.299C357.311 105.319 355.155 103.235 354.674 102.841C352.936 101.452 352.376 103.63 352.376 103.63L359.253 115.664Z" fill="url(#paint22_linear_18166_2943)"/>
<path style="mix-blend-mode:multiply" opacity="0.6" d="M363.992 123.942L380.385 145.02L377.313 147.261L363.992 123.942Z" fill="url(#paint23_linear_18166_2943)"/>
<path d="M104.102 328.961H508.008" stroke="black" stroke-width="1.23" stroke-miterlimit="10" stroke-linecap="round"/>
<path d="M384.195 335.519H325.414" stroke="black" stroke-width="1.23" stroke-miterlimit="10" stroke-linecap="round"/>
<path d="M271.696 335.519H115.703" stroke="black" stroke-width="1.23" stroke-miterlimit="10" stroke-linecap="round"/>
<path d="M441.289 335.519H492.876" stroke="black" stroke-width="1.23" stroke-miterlimit="10" stroke-linecap="round"/>
<path d="M476.061 291.966L490.274 302.509C490.274 302.509 493.678 304.971 492.043 308.293C490.898 310.661 485.947 313.817 481.304 315.017L466.648 305.16L476.061 291.966Z" fill="url(#paint24_linear_18166_2943)"/>
<path d="M395.71 298.973L391.762 316.208C391.762 316.208 390.877 320.312 387.174 320.154C384.576 320.044 379.664 316.8 376.695 313.052L379.854 295.691L395.71 298.973Z" fill="url(#paint25_linear_18166_2943)"/>
<path d="M420.704 167.811C420.704 167.811 408.409 156.258 401.8 150.315C401.8 150.315 393.777 162.847 392.68 166.674C392.68 166.674 404.027 179.301 411.852 178.977C419.677 178.653 423.981 172.467 420.704 167.811Z" fill="#BC80F4"/>
<path d="M391.612 175.891C391.051 177.643 390.515 180.524 389.938 181.976C388.58 195.233 409.45 208.159 423.008 227.059L452.335 209.651C452.335 209.651 436.495 180.689 428.022 172.956C424.417 169.627 420.142 167.106 415.484 165.563C410.825 164.019 405.89 163.489 401.009 164.007" fill="#BC80F4"/>
<path d="M416.273 218.671C412.143 213.936 407.8 209.627 403.852 205.532L409.963 193.213C412.81 201.498 414.921 210.016 416.273 218.671Z" fill="black"/>
<path d="M386.657 203.598L385.306 224.416L366.513 261.15C364.516 261.522 362.552 262.05 360.638 262.728C359.059 263.47 357.914 265.561 357.172 266.745C356.429 267.929 353.729 271.441 353.105 272.435C352.481 273.429 353.184 274.873 355.15 274.518C356.943 274.195 360.788 270.407 362.573 268.947C363.299 268.355 363.773 268.347 363.26 269.168C362.636 270.186 360.559 273.114 360.559 273.114L352.047 277.99C352.142 278.45 352.405 278.858 352.784 279.135C353.164 279.412 353.633 279.539 354.1 279.49C355.916 279.403 364.831 277.051 367.824 274.905C370.959 272.477 373.843 269.741 376.431 266.737C376.431 266.737 398.32 243.465 403.823 227.77C405.079 224.187 406.8 206.621 406.8 206.621L386.657 203.598Z" fill="url(#paint26_linear_18166_2943)"/>
<path d="M392.124 179.166C389.826 181.455 387.797 185.195 386.857 191.003C385.531 199.258 384.852 214.078 384.852 214.078C393.206 217.047 402.28 217.337 410.807 214.906C410.807 214.906 410.388 195.762 409.599 188.746C408.517 179.269 397.849 173.485 392.124 179.166Z" fill="#BC80F4"/>
<path d="M430.665 241.879C430.665 241.879 420.242 267.171 421.608 275.252C422.729 281.857 463.68 315.538 463.68 315.538C467.857 314.022 479.599 302.241 479.599 294.144L449.174 269.081L465.164 239.457L441.672 235.377" fill="#121D30"/>
<path d="M450.539 251.081C445.974 255.161 429.092 263.044 422.633 265.79C423.844 260.946 425.307 256.168 427.015 251.475C437.549 249.779 454.882 247.238 450.539 251.081Z" fill="black"/>
<path d="M423.005 227.059L452.332 209.651C452.332 209.651 465.385 218.726 466.27 230.169C466.27 230.524 466.317 230.879 466.325 231.234C466.68 241.138 461.682 247.94 452.332 251.254L412.377 263.013L404.441 308.167C399.561 312.799 382.616 311.805 376.883 306.407C376.883 306.407 386.358 255.958 388.348 250.008C390.338 244.057 423.005 227.059 423.005 227.059Z" fill="#121D30"/>
<path style="mix-blend-mode:screen" opacity="0.5" d="M447.838 230.437C447.475 234.745 432.266 241.658 413.931 249.597C408.404 251.964 403.666 254.064 402.497 254.861C400.278 256.51 394.901 283.909 390.518 311.032C389.95 310.992 389.365 310.937 388.797 310.866C391.561 293.742 398.02 255.926 401.51 253.456C402.789 252.548 407.172 250.654 413.244 248.019C424.631 243.095 445.809 233.925 446.109 230.295C446.44 226.349 442.911 219.902 440.81 216.485L442.303 215.569C444.506 219.191 448.209 225.97 447.838 230.437Z" fill="white"/>
<path d="M412.37 263.028C412.37 263.028 408.699 263.904 408.375 264.109C408.051 264.315 410.349 265.814 411.194 269.689L412.37 263.028Z" fill="black"/>
<path d="M449.176 269.081C449.176 269.081 445.938 266.635 445.891 266.508C445.844 266.382 450.289 265.088 452.208 263.462L449.176 269.081Z" fill="black"/>
<path d="M490.233 302.509C490.233 302.509 490.92 301.885 493.486 302.185C496.053 302.485 500.593 306.336 503.246 308.98C505.331 311.055 506.855 312.87 506.855 312.87L494.418 328.969H466.631C466.631 328.969 465.265 324.139 467.057 320.967C470.753 314.441 479.597 316.114 479.597 316.114L477.646 314.401C477.33 314.125 477.52 313.375 478.333 312.452C479.601 311.007 481.269 309.972 483.126 309.477C484.115 309.294 485.124 309.238 486.127 309.311C486.87 309.225 487.589 308.993 488.242 308.629C488.895 308.265 489.47 307.775 489.933 307.188C491.212 305.318 491.062 303.487 490.233 302.509Z" fill="url(#paint27_linear_18166_2943)"/>
<path style="mix-blend-mode:multiply" d="M506.877 312.87L494.432 328.961H466.637C466.269 327.534 466.104 326.062 466.147 324.589C466.159 324.254 466.3 323.936 466.539 323.701C466.779 323.466 467.099 323.332 467.435 323.326C469.266 323.326 471.383 323.326 471.864 323.326C472.765 323.413 474.423 324.952 474.423 324.952H491.732L503.75 309.477C505.582 311.324 506.877 312.87 506.877 312.87Z" fill="url(#paint28_linear_18166_2943)"/>
<path d="M479.601 316.114C482.354 316.23 485.078 316.713 487.703 317.55C484.993 315.463 481.581 314.505 478.18 314.875L479.601 316.114Z" fill="black"/>
<path d="M374.163 309.887C374.222 309.773 374.309 309.676 374.415 309.603C374.521 309.53 374.643 309.484 374.771 309.469C375.84 309.389 376.914 309.526 377.929 309.872C379.509 310.495 381.175 314.007 383.275 315.396C385.376 316.784 390.856 315.317 392.23 313.991C392.23 313.991 393.58 314.685 394.18 317.029C394.78 319.373 394.622 329 394.622 329H352.053C352.053 329 349.976 320.58 357.304 316.169C361.687 313.533 372.181 313.762 372.181 313.762L374.163 309.887Z" fill="url(#paint29_linear_18166_2943)"/>
<path style="mix-blend-mode:multiply" d="M394.686 328.961H352.046C351.591 326.724 351.707 324.409 352.385 322.229H353.238L354.154 322.34C354.675 322.403 355.228 323.263 355.599 323.973C355.749 324.265 355.975 324.511 356.253 324.684C356.531 324.858 356.851 324.953 357.178 324.96H394.686C394.686 327.177 394.686 328.961 394.686 328.961Z" fill="url(#paint30_linear_18166_2943)"/>
<path d="M372.164 313.73C373.084 313.703 374 313.85 374.865 314.164C374.665 313.755 374.367 313.401 373.998 313.134C373.629 312.867 373.2 312.695 372.748 312.634L372.164 313.73Z" fill="black"/>
<path d="M395.887 161.521C400.624 156.289 402.093 148.95 398.856 144.057C395.168 138.533 385.021 136.324 380.173 141.264C380.173 141.264 373.066 147.972 374.432 161.166C374.977 166.461 379.454 168.663 384.816 167.755L391.607 175.947C391.607 175.947 400.009 172.443 401.019 164.007C399.152 163.55 397.402 162.703 395.887 161.521Z" fill="url(#paint31_linear_18166_2943)"/>
<path d="M384.82 167.755C384.82 167.755 389.266 166.903 391.69 164.204C391.295 166.303 388.99 169.436 387.292 170.73L384.82 167.755Z" fill="black"/>
<path d="M397.365 162.539C396.84 162.25 396.345 161.909 395.888 161.521L395.478 160.33C396.986 158.751 397.949 156.321 396.567 154.806C395.186 153.29 392.935 154.143 392.082 155.674C391.571 155.303 391.152 154.82 390.858 154.261C389.737 152.162 390.858 149.226 390.858 149.226C390.858 149.226 387.992 150.142 383.167 147.83C378.343 145.517 377.213 142.59 377.213 142.59C373.723 136.853 383.381 135.314 383.381 135.314C383.381 135.314 381.699 134.264 383.096 133.223C384.494 132.181 389.413 130.855 395.612 133.846C403.248 137.484 402.269 143.979 402.269 143.979C410.907 150.521 397.365 162.539 397.365 162.539Z" fill="black"/>
<path d="M410.922 134.02C410.706 133.792 410.428 133.634 410.123 133.565C409.817 133.496 409.498 133.519 409.206 133.632C408.914 133.745 408.662 133.942 408.482 134.198C408.302 134.454 408.202 134.758 408.196 135.071C408.189 135.384 408.276 135.691 408.444 135.955C408.613 136.219 408.857 136.426 409.144 136.551C409.431 136.676 409.749 136.713 410.057 136.657C410.365 136.601 410.65 136.455 410.874 136.237C411.172 135.948 411.345 135.553 411.353 135.138C411.362 134.723 411.207 134.321 410.922 134.02Z" fill="black"/>
<path d="M432.513 122.711C432.591 121.757 432.506 120.796 432.26 119.87C431.829 118.311 430.932 116.92 429.689 115.883C428.446 114.847 426.916 114.214 425.303 114.07C423.4 113.823 421.471 114.278 419.879 115.349C419.539 115.585 419.22 115.849 418.923 116.138C418.086 116.963 417.446 117.966 417.052 119.073C417.004 119.2 416.973 119.31 416.933 119.436C416.933 119.436 416.246 121.449 416.728 122.498C416.805 122.709 416.923 122.902 417.075 123.066C417.365 123.364 417.76 123.536 418.175 123.545C418.59 123.554 418.993 123.399 419.294 123.114C419.341 123.067 419.383 123.017 419.421 122.964L419.515 122.845C419.728 122.509 419.851 122.123 419.871 121.725C419.885 121.102 420.022 120.487 420.274 119.917C420.526 119.347 420.888 118.832 421.339 118.402C421.801 117.959 422.357 117.626 422.965 117.428C423.574 117.229 424.219 117.172 424.853 117.258C426.025 117.352 427.12 117.878 427.925 118.734C428.388 119.208 428.741 119.778 428.958 120.405C429.175 121.031 429.251 121.697 429.181 122.356C429.116 123.528 428.607 124.631 427.759 125.442C426.504 126.641 424.561 127.257 421.932 127.304H421.213C419.898 127.21 418.577 127.231 417.265 127.367C415.871 127.66 414.591 128.348 413.577 129.348L413.127 129.774L413.064 129.845C412.822 130.143 412.697 130.519 412.712 130.903C412.728 131.287 412.883 131.652 413.148 131.93C413.413 132.207 413.771 132.379 414.154 132.412C414.537 132.445 414.918 132.338 415.228 132.11L416.017 131.321C416.44 130.953 416.931 130.671 417.462 130.492H417.573C418.931 130.344 420.297 130.275 421.663 130.287C422.454 130.312 423.246 130.281 424.032 130.192C426.701 129.887 428.704 129.098 430.041 127.825C431.471 126.486 432.352 124.663 432.513 122.711Z" fill="black"/>
<path d="M392.056 121.67C392.198 121.171 391.907 120.651 391.408 120.51C390.909 120.369 390.389 120.659 390.248 121.158C390.107 121.657 390.397 122.176 390.896 122.317C391.396 122.459 391.915 122.169 392.056 121.67Z" fill="black"/>
<path d="M396.615 106.858C396.278 106.389 395.861 105.983 395.383 105.658C394.735 105.243 393.999 104.986 393.234 104.907C392.469 104.828 391.696 104.929 390.976 105.202C390.257 105.475 389.612 105.913 389.092 106.48C388.573 107.047 388.193 107.727 387.984 108.467C387.924 108.709 387.88 108.954 387.85 109.201C387.795 109.905 387.9 110.612 388.158 111.269C388.182 111.342 388.211 111.413 388.245 111.482C388.245 111.482 388.727 112.666 389.358 112.958C389.474 113.026 389.603 113.067 389.737 113.076C389.86 113.089 389.985 113.077 390.103 113.042C390.222 113.006 390.332 112.948 390.428 112.869C390.523 112.79 390.602 112.693 390.66 112.584C390.718 112.475 390.753 112.355 390.764 112.232C390.768 112.192 390.768 112.153 390.764 112.113C390.768 112.084 390.768 112.055 390.764 112.026C390.731 111.789 390.639 111.564 390.495 111.371C390.015 110.789 389.785 110.04 389.856 109.288C389.89 108.905 390.011 108.535 390.21 108.206C390.408 107.876 390.678 107.596 391.001 107.386C391.572 106.968 392.278 106.777 392.983 106.85C393.381 106.884 393.766 107.006 394.111 107.207C394.456 107.407 394.753 107.681 394.981 108.01C395.41 108.57 395.611 109.272 395.541 109.975C395.32 111.23 394.635 112.357 393.622 113.131L393.299 113.415C392.655 113.886 392.055 114.415 391.506 114.994C390.979 115.678 390.664 116.5 390.598 117.361V117.74V117.795C390.576 118.044 390.653 118.291 390.813 118.483C390.973 118.676 391.202 118.797 391.451 118.821C391.574 118.834 391.698 118.822 391.817 118.787C391.935 118.751 392.046 118.692 392.141 118.614C392.237 118.535 392.316 118.438 392.374 118.329C392.431 118.22 392.467 118.1 392.477 117.977L392.541 117.322C392.585 116.986 392.698 116.664 392.872 116.375L392.912 116.319C393.475 115.721 394.07 115.155 394.696 114.623C395.071 114.321 395.422 113.991 395.746 113.636C396.707 112.719 397.342 111.514 397.555 110.203C397.677 109.009 397.341 107.814 396.615 106.858Z" fill="black"/>
<path opacity="0.5" d="M445.909 34.0672C441.212 34.0578 436.618 35.4413 432.708 38.0425C428.798 40.6437 425.748 44.3457 423.945 48.6799C422.141 53.014 421.665 57.7855 422.576 62.3904C423.487 66.9952 425.745 71.2264 429.063 74.5484C432.382 77.8703 436.612 80.1337 441.218 81.0519C445.824 81.9702 450.6 81.502 454.94 79.7068C459.279 77.9116 462.989 74.8699 465.598 70.9669C468.207 67.0638 469.599 62.4749 469.598 57.7808C469.598 51.4984 467.103 45.4727 462.662 41.0267C458.22 36.5806 452.195 34.0776 445.909 34.0672ZM445.909 78.188C441.87 78.1896 437.921 76.994 434.562 74.7526C431.203 72.5112 428.584 69.3246 427.038 65.5958C425.491 61.867 425.085 57.7636 425.872 53.8044C426.659 49.8453 428.604 46.2084 431.459 43.3536C434.314 40.4988 437.953 38.5544 441.914 37.7664C445.876 36.9783 449.982 37.382 453.714 38.9263C457.445 40.4707 460.635 43.0863 462.879 46.4424C465.123 49.7985 466.321 53.7444 466.321 57.7808C466.324 60.4621 465.798 63.1176 464.774 65.5958C463.75 68.0739 462.247 70.326 460.351 72.2234C458.456 74.1208 456.204 75.6262 453.726 76.6537C451.248 77.6812 448.592 78.2106 445.909 78.2117V78.188Z" fill="url(#paint32_linear_18166_2943)"/>
<path opacity="0.5" d="M448.389 57.8045C448.39 58.2949 448.246 58.7748 447.975 59.1833C447.703 59.5918 447.316 59.9106 446.863 60.0994C446.411 60.2881 445.912 60.3383 445.43 60.2436C444.949 60.1489 444.506 59.9135 444.159 59.5673C443.811 59.2211 443.574 58.7796 443.478 58.2987C443.382 57.8178 443.43 57.3192 443.618 56.866C443.805 56.4127 444.123 56.0253 444.531 55.7526C444.939 55.48 445.418 55.3345 445.909 55.3345C446.565 55.3345 447.195 55.5945 447.66 56.0574C448.124 56.5204 448.386 57.1487 448.389 57.8045Z" fill="url(#paint33_linear_18166_2943)"/>
<path d="M445.895 58.9566C446.532 58.9566 447.048 58.4408 447.048 57.8045C447.048 57.1682 446.532 56.6523 445.895 56.6523C445.258 56.6523 444.742 57.1682 444.742 57.8045C444.742 58.4408 445.258 58.9566 445.895 58.9566Z" fill="black"/>
<path d="M445.901 42.874C445.635 42.8719 445.38 42.7646 445.192 42.5753C445.004 42.3861 444.898 42.1304 444.898 41.8639V39.3228C444.897 39.1906 444.923 39.0594 444.973 38.9369C445.022 38.8144 445.096 38.703 445.189 38.6091C445.283 38.5152 445.394 38.4406 445.516 38.3898C445.638 38.3389 445.769 38.3127 445.901 38.3127C446.169 38.3127 446.426 38.4192 446.616 38.6086C446.806 38.798 446.912 39.055 446.912 39.3228V41.8639C446.912 42.1318 446.806 42.3887 446.616 42.5781C446.426 42.7676 446.169 42.874 445.901 42.874Z" fill="black"/>
<path d="M460.844 57.8045C460.844 57.6722 460.87 57.5412 460.921 57.4191C460.972 57.297 461.046 57.1862 461.14 57.093C461.234 56.9998 461.346 56.9262 461.468 56.8763C461.591 56.8264 461.722 56.8012 461.854 56.8023H464.397C464.529 56.8012 464.661 56.8264 464.783 56.8763C464.906 56.9262 465.017 56.9998 465.111 57.093C465.205 57.1862 465.28 57.297 465.331 57.4191C465.382 57.5412 465.408 57.6722 465.408 57.8045C465.408 58.0724 465.301 58.3293 465.112 58.5187C464.922 58.7082 464.665 58.8146 464.397 58.8146H461.854C461.586 58.8146 461.329 58.7082 461.14 58.5187C460.95 58.3293 460.844 58.0724 460.844 57.8045Z" fill="black"/>
<path d="M445.901 72.7351C446.169 72.7351 446.426 72.8415 446.616 73.031C446.806 73.2204 446.912 73.4773 446.912 73.7452V76.2862C446.912 76.5541 446.806 76.811 446.616 77.0005C446.426 77.1899 446.169 77.2963 445.901 77.2963C445.769 77.2963 445.638 77.2702 445.516 77.2193C445.394 77.1684 445.283 77.0939 445.189 77C445.096 76.9061 445.022 76.7947 444.973 76.6722C444.923 76.5497 444.897 76.4185 444.898 76.2862V73.7452C444.897 73.6129 444.923 73.4818 444.973 73.3593C445.022 73.2368 445.096 73.1253 445.189 73.0314C445.283 72.9375 445.394 72.863 445.516 72.8121C445.638 72.7613 445.769 72.7351 445.901 72.7351Z" fill="black"/>
<path d="M430.955 57.8045C430.955 58.0724 430.848 58.3293 430.659 58.5187C430.469 58.7082 430.212 58.8146 429.944 58.8146H427.401C427.133 58.8146 426.876 58.7082 426.687 58.5187C426.497 58.3293 426.391 58.0724 426.391 57.8045C426.391 57.6722 426.417 57.5412 426.468 57.4191C426.519 57.297 426.593 57.1862 426.687 57.093C426.781 56.9998 426.893 56.9262 427.015 56.8763C427.138 56.8264 427.269 56.8012 427.401 56.8023H429.944C430.076 56.8012 430.208 56.8264 430.33 56.8763C430.453 56.9262 430.564 56.9998 430.658 57.093C430.752 57.1862 430.827 57.297 430.878 57.4191C430.929 57.5412 430.955 57.6722 430.955 57.8045Z" fill="black"/>
<path d="M434.148 44.0576L445.898 57.8044L438.081 65.2618" stroke="black" stroke-linecap="round" stroke-linejoin="round"/>
<path d="M172.352 257.512L175.826 243.821L162.126 247.293L167.219 249.637L156.156 255.484L164.155 263.478L170.006 252.422L172.352 257.512Z" fill="black"/>
</g>
<path d="M15.984 388H12.624L5.016 376.504V388H1.656V371.224H5.016L12.624 382.744V371.224H15.984V388ZM24.7284 388.216C23.4484 388.216 22.2964 387.936 21.2724 387.376C20.2484 386.8 19.4404 385.992 18.8484 384.952C18.2724 383.912 17.9844 382.712 17.9844 381.352C17.9844 379.992 18.2804 378.792 18.8724 377.752C19.4804 376.712 20.3044 375.912 21.3444 375.352C22.3844 374.776 23.5444 374.488 24.8244 374.488C26.1044 374.488 27.2644 374.776 28.3044 375.352C29.3444 375.912 30.1604 376.712 30.7524 377.752C31.3604 378.792 31.6644 379.992 31.6644 381.352C31.6644 382.712 31.3524 383.912 30.7284 384.952C30.1204 385.992 29.2884 386.8 28.2324 387.376C27.1924 387.936 26.0244 388.216 24.7284 388.216ZM24.7284 385.288C25.3364 385.288 25.9044 385.144 26.4324 384.856C26.9764 384.552 27.4084 384.104 27.7284 383.512C28.0484 382.92 28.2084 382.2 28.2084 381.352C28.2084 380.088 27.8724 379.12 27.2004 378.448C26.5444 377.76 25.7364 377.416 24.7764 377.416C23.8164 377.416 23.0084 377.76 22.3524 378.448C21.7124 379.12 21.3924 380.088 21.3924 381.352C21.3924 382.616 21.7044 383.592 22.3284 384.28C22.9684 384.952 23.7684 385.288 24.7284 385.288ZM50.2879 371.248V373.96H45.8239V388H42.4639V373.96H37.9999V371.248H50.2879ZM51.3954 381.304C51.3954 379.96 51.6594 378.768 52.1874 377.728C52.7314 376.688 53.4594 375.888 54.3714 375.328C55.2994 374.768 56.3314 374.488 57.4674 374.488C58.4594 374.488 59.3234 374.688 60.0594 375.088C60.8114 375.488 61.4114 375.992 61.8594 376.6V374.704H65.2434V388H61.8594V386.056C61.4274 386.68 60.8274 387.2 60.0594 387.616C59.3074 388.016 58.4354 388.216 57.4434 388.216C56.3234 388.216 55.2994 387.928 54.3714 387.352C53.4594 386.776 52.7314 385.968 52.1874 384.928C51.6594 383.872 51.3954 382.664 51.3954 381.304ZM61.8594 381.352C61.8594 380.536 61.6994 379.84 61.3794 379.264C61.0594 378.672 60.6274 378.224 60.0834 377.92C59.5394 377.6 58.9554 377.44 58.3314 377.44C57.7074 377.44 57.1314 377.592 56.6034 377.896C56.0754 378.2 55.6434 378.648 55.3074 379.24C54.9874 379.816 54.8274 380.504 54.8274 381.304C54.8274 382.104 54.9874 382.808 55.3074 383.416C55.6434 384.008 56.0754 384.464 56.6034 384.784C57.1474 385.104 57.7234 385.264 58.3314 385.264C58.9554 385.264 59.5394 385.112 60.0834 384.808C60.6274 384.488 61.0594 384.04 61.3794 383.464C61.6994 382.872 61.8594 382.168 61.8594 381.352ZM73.1331 388.216C72.0451 388.216 71.0691 388.024 70.2051 387.64C69.3411 387.24 68.6531 386.704 68.1411 386.032C67.6451 385.36 67.3731 384.616 67.3251 383.8H70.7091C70.7731 384.312 71.0211 384.736 71.4531 385.072C71.9011 385.408 72.4531 385.576 73.1091 385.576C73.7491 385.576 74.2451 385.448 74.5971 385.192C74.9651 384.936 75.1491 384.608 75.1491 384.208C75.1491 383.776 74.9251 383.456 74.4771 383.248C74.0451 383.024 73.3491 382.784 72.3891 382.528C71.3971 382.288 70.5811 382.04 69.9411 381.784C69.3171 381.528 68.7731 381.136 68.3091 380.608C67.8611 380.08 67.6371 379.368 67.6371 378.472C67.6371 377.736 67.8451 377.064 68.2611 376.456C68.6931 375.848 69.3011 375.368 70.0851 375.016C70.8851 374.664 71.8211 374.488 72.8931 374.488C74.4771 374.488 75.7411 374.888 76.6851 375.688C77.6291 376.472 78.1491 377.536 78.2451 378.88H75.0291C74.9811 378.352 74.7571 377.936 74.3571 377.632C73.9731 377.312 73.4531 377.152 72.7971 377.152C72.1891 377.152 71.7171 377.264 71.3811 377.488C71.0611 377.712 70.9011 378.024 70.9011 378.424C70.9011 378.872 71.1251 379.216 71.5731 379.456C72.0211 379.68 72.7171 379.912 73.6611 380.152C74.6211 380.392 75.4131 380.64 76.0371 380.896C76.6611 381.152 77.1971 381.552 77.6451 382.096C78.1091 382.624 78.3491 383.328 78.3651 384.208C78.3651 384.976 78.1491 385.664 77.7171 386.272C77.3011 386.88 76.6931 387.36 75.8931 387.712C75.1091 388.048 74.1891 388.216 73.1331 388.216ZM88.5152 388L84.0032 382.336V388H80.6432V370.24H84.0032V380.344L88.4672 374.704H92.8352L86.9792 381.376L92.8832 388H88.5152ZM101.122 373.12C100.53 373.12 100.034 372.936 99.6336 372.568C99.2496 372.184 99.0576 371.712 99.0576 371.152C99.0576 370.592 99.2496 370.128 99.6336 369.76C100.034 369.376 100.53 369.184 101.122 369.184C101.714 369.184 102.202 369.376 102.586 369.76C102.986 370.128 103.186 370.592 103.186 371.152C103.186 371.712 102.986 372.184 102.586 372.568C102.202 372.936 101.714 373.12 101.122 373.12ZM102.778 374.704V388H99.4176V374.704H102.778ZM110.705 388.216C109.617 388.216 108.641 388.024 107.777 387.64C106.913 387.24 106.225 386.704 105.713 386.032C105.217 385.36 104.945 384.616 104.897 383.8H108.281C108.345 384.312 108.593 384.736 109.025 385.072C109.473 385.408 110.025 385.576 110.681 385.576C111.321 385.576 111.817 385.448 112.169 385.192C112.537 384.936 112.721 384.608 112.721 384.208C112.721 383.776 112.497 383.456 112.049 383.248C111.617 383.024 110.921 382.784 109.961 382.528C108.969 382.288 108.153 382.04 107.513 381.784C106.889 381.528 106.345 381.136 105.881 380.608C105.433 380.08 105.209 379.368 105.209 378.472C105.209 377.736 105.417 377.064 105.833 376.456C106.265 375.848 106.873 375.368 107.657 375.016C108.457 374.664 109.393 374.488 110.465 374.488C112.049 374.488 113.313 374.888 114.257 375.688C115.201 376.472 115.721 377.536 115.817 378.88H112.601C112.553 378.352 112.329 377.936 111.929 377.632C111.545 377.312 111.025 377.152 110.369 377.152C109.761 377.152 109.289 377.264 108.953 377.488C108.633 377.712 108.473 378.024 108.473 378.424C108.473 378.872 108.697 379.216 109.145 379.456C109.593 379.68 110.289 379.912 111.233 380.152C112.193 380.392 112.985 380.64 113.609 380.896C114.233 381.152 114.769 381.552 115.217 382.096C115.681 382.624 115.921 383.328 115.937 384.208C115.937 384.976 115.721 385.664 115.289 386.272C114.873 386.88 114.265 387.36 113.465 387.712C112.681 388.048 111.761 388.216 110.705 388.216ZM133.726 384.808H127.054L125.95 388H122.422L128.446 371.224H132.358L138.382 388H134.83L133.726 384.808ZM132.814 382.12L130.39 375.112L127.966 382.12H132.814ZM145.698 384.904L149.058 374.704H152.634L147.714 388H143.634L138.738 374.704H142.338L145.698 384.904ZM153.177 381.304C153.177 379.96 153.441 378.768 153.969 377.728C154.513 376.688 155.241 375.888 156.153 375.328C157.081 374.768 158.113 374.488 159.249 374.488C160.241 374.488 161.105 374.688 161.841 375.088C162.593 375.488 163.193 375.992 163.641 376.6V374.704H167.025V388H163.641V386.056C163.209 386.68 162.609 387.2 161.841 387.616C161.089 388.016 160.217 388.216 159.225 388.216C158.105 388.216 157.081 387.928 156.153 387.352C155.241 386.776 154.513 385.968 153.969 384.928C153.441 383.872 153.177 382.664 153.177 381.304ZM163.641 381.352C163.641 380.536 163.481 379.84 163.161 379.264C162.841 378.672 162.409 378.224 161.865 377.92C161.321 377.6 160.737 377.44 160.113 377.44C159.489 377.44 158.913 377.592 158.385 377.896C157.857 378.2 157.425 378.648 157.089 379.24C156.769 379.816 156.609 380.504 156.609 381.304C156.609 382.104 156.769 382.808 157.089 383.416C157.425 384.008 157.857 384.464 158.385 384.784C158.929 385.104 159.505 385.264 160.113 385.264C160.737 385.264 161.321 385.112 161.865 384.808C162.409 384.488 162.841 384.04 163.161 383.464C163.481 382.872 163.641 382.168 163.641 381.352ZM171.531 373.12C170.939 373.12 170.443 372.936 170.043 372.568C169.659 372.184 169.467 371.712 169.467 371.152C169.467 370.592 169.659 370.128 170.043 369.76C170.443 369.376 170.939 369.184 171.531 369.184C172.123 369.184 172.611 369.376 172.995 369.76C173.395 370.128 173.595 370.592 173.595 371.152C173.595 371.712 173.395 372.184 172.995 372.568C172.611 372.936 172.123 373.12 171.531 373.12ZM173.187 374.704V388H169.827V374.704H173.187ZM179.386 370.24V388H176.026V370.24H179.386ZM181.362 381.304C181.362 379.96 181.626 378.768 182.154 377.728C182.698 376.688 183.426 375.888 184.338 375.328C185.266 374.768 186.298 374.488 187.434 374.488C188.426 374.488 189.29 374.688 190.026 375.088C190.778 375.488 191.378 375.992 191.826 376.6V374.704H195.21V388H191.826V386.056C191.394 386.68 190.794 387.2 190.026 387.616C189.274 388.016 188.402 388.216 187.41 388.216C186.29 388.216 185.266 387.928 184.338 387.352C183.426 386.776 182.698 385.968 182.154 384.928C181.626 383.872 181.362 382.664 181.362 381.304ZM191.826 381.352C191.826 380.536 191.666 379.84 191.346 379.264C191.026 378.672 190.594 378.224 190.05 377.92C189.506 377.6 188.922 377.44 188.298 377.44C187.674 377.44 187.098 377.592 186.57 377.896C186.042 378.2 185.61 378.648 185.274 379.24C184.954 379.816 184.794 380.504 184.794 381.304C184.794 382.104 184.954 382.808 185.274 383.416C185.61 384.008 186.042 384.464 186.57 384.784C187.114 385.104 187.69 385.264 188.298 385.264C188.922 385.264 189.506 385.112 190.05 384.808C190.594 384.488 191.026 384.04 191.346 383.464C191.666 382.872 191.826 382.168 191.826 381.352ZM201.372 376.648C201.804 376.008 202.396 375.488 203.148 375.088C203.916 374.688 204.788 374.488 205.764 374.488C206.9 374.488 207.924 374.768 208.836 375.328C209.764 375.888 210.492 376.688 211.02 377.728C211.564 378.752 211.836 379.944 211.836 381.304C211.836 382.664 211.564 383.872 211.02 384.928C210.492 385.968 209.764 386.776 208.836 387.352C207.924 387.928 206.9 388.216 205.764 388.216C204.772 388.216 203.9 388.024 203.148 387.64C202.412 387.24 201.82 386.728 201.372 386.104V388H198.012V370.24H201.372V376.648ZM208.404 381.304C208.404 380.504 208.236 379.816 207.9 379.24C207.58 378.648 207.148 378.2 206.604 377.896C206.076 377.592 205.5 377.44 204.876 377.44C204.268 377.44 203.692 377.6 203.148 377.92C202.62 378.224 202.188 378.672 201.852 379.264C201.532 379.856 201.372 380.552 201.372 381.352C201.372 382.152 201.532 382.848 201.852 383.44C202.188 384.032 202.62 384.488 203.148 384.808C203.692 385.112 204.268 385.264 204.876 385.264C205.5 385.264 206.076 385.104 206.604 384.784C207.148 384.464 207.58 384.008 207.9 383.416C208.236 382.824 208.404 382.12 208.404 381.304ZM217.157 370.24V388H213.797V370.24H217.157ZM232.357 381.064C232.357 381.544 232.325 381.976 232.261 382.36H222.541C222.621 383.32 222.957 384.072 223.549 384.616C224.141 385.16 224.869 385.432 225.733 385.432C226.981 385.432 227.869 384.896 228.397 383.824H232.021C231.637 385.104 230.901 386.16 229.813 386.992C228.725 387.808 227.389 388.216 225.805 388.216C224.525 388.216 223.373 387.936 222.349 387.376C221.341 386.8 220.549 385.992 219.973 384.952C219.413 383.912 219.133 382.712 219.133 381.352C219.133 379.976 219.413 378.768 219.973 377.728C220.533 376.688 221.317 375.888 222.325 375.328C223.333 374.768 224.493 374.488 225.805 374.488C227.069 374.488 228.197 374.76 229.189 375.304C230.197 375.848 230.973 376.624 231.517 377.632C232.077 378.624 232.357 379.768 232.357 381.064ZM228.877 380.104C228.861 379.24 228.549 378.552 227.941 378.04C227.333 377.512 226.589 377.248 225.709 377.248C224.877 377.248 224.173 377.504 223.597 378.016C223.037 378.512 222.693 379.208 222.565 380.104H228.877ZM252.288 374.704L244.056 394.288H240.48L243.36 387.664L238.032 374.704H241.8L245.232 383.992L248.712 374.704H252.288ZM265.979 381.064C265.979 381.544 265.947 381.976 265.883 382.36H256.163C256.243 383.32 256.579 384.072 257.171 384.616C257.763 385.16 258.491 385.432 259.355 385.432C260.603 385.432 261.491 384.896 262.019 383.824H265.643C265.259 385.104 264.523 386.16 263.435 386.992C262.347 387.808 261.011 388.216 259.427 388.216C258.147 388.216 256.995 387.936 255.971 387.376C254.963 386.8 254.171 385.992 253.595 384.952C253.035 383.912 252.755 382.712 252.755 381.352C252.755 379.976 253.035 378.768 253.595 377.728C254.155 376.688 254.939 375.888 255.947 375.328C256.955 374.768 258.115 374.488 259.427 374.488C260.691 374.488 261.819 374.76 262.811 375.304C263.819 375.848 264.595 376.624 265.139 377.632C265.699 378.624 265.979 379.768 265.979 381.064ZM262.499 380.104C262.483 379.24 262.171 378.552 261.563 378.04C260.955 377.512 260.211 377.248 259.331 377.248C258.499 377.248 257.795 377.504 257.219 378.016C256.659 378.512 256.315 379.208 256.187 380.104H262.499ZM271.864 377.464V383.896C271.864 384.344 271.968 384.672 272.176 384.88C272.4 385.072 272.768 385.168 273.28 385.168H274.84V388H272.728C269.896 388 268.48 386.624 268.48 383.872V377.464H266.896V374.704H268.48V371.416H271.864V374.704H274.84V377.464H271.864ZM280.449 384.472L277.641 391.216H275.481L277.041 384.472H280.449ZM299.845 376.432C299.845 377.328 299.629 378.168 299.197 378.952C298.781 379.736 298.117 380.368 297.205 380.848C296.309 381.328 295.173 381.568 293.797 381.568H290.989V388H287.629V371.248H293.797C295.093 371.248 296.197 371.472 297.109 371.92C298.021 372.368 298.701 372.984 299.149 373.768C299.613 374.552 299.845 375.44 299.845 376.432ZM293.653 378.856C294.581 378.856 295.269 378.648 295.717 378.232C296.165 377.8 296.389 377.2 296.389 376.432C296.389 374.8 295.477 373.984 293.653 373.984H290.989V378.856H293.653ZM305.111 370.24V388H301.751V370.24H305.111ZM320.31 381.064C320.31 381.544 320.278 381.976 320.214 382.36H310.494C310.574 383.32 310.91 384.072 311.502 384.616C312.094 385.16 312.822 385.432 313.686 385.432C314.934 385.432 315.822 384.896 316.35 383.824H319.974C319.59 385.104 318.854 386.16 317.766 386.992C316.678 387.808 315.342 388.216 313.758 388.216C312.478 388.216 311.326 387.936 310.302 387.376C309.294 386.8 308.502 385.992 307.926 384.952C307.366 383.912 307.086 382.712 307.086 381.352C307.086 379.976 307.366 378.768 307.926 377.728C308.486 376.688 309.27 375.888 310.278 375.328C311.286 374.768 312.446 374.488 313.758 374.488C315.022 374.488 316.15 374.76 317.142 375.304C318.15 375.848 318.926 376.624 319.47 377.632C320.03 378.624 320.31 379.768 320.31 381.064ZM316.83 380.104C316.814 379.24 316.502 378.552 315.894 378.04C315.286 377.512 314.542 377.248 313.662 377.248C312.83 377.248 312.126 377.504 311.55 378.016C310.99 378.512 310.646 379.208 310.518 380.104H316.83ZM321.419 381.304C321.419 379.96 321.683 378.768 322.211 377.728C322.755 376.688 323.483 375.888 324.395 375.328C325.323 374.768 326.355 374.488 327.491 374.488C328.483 374.488 329.347 374.688 330.083 375.088C330.835 375.488 331.435 375.992 331.883 376.6V374.704H335.267V388H331.883V386.056C331.451 386.68 330.851 387.2 330.083 387.616C329.331 388.016 328.459 388.216 327.467 388.216C326.347 388.216 325.323 387.928 324.395 387.352C323.483 386.776 322.755 385.968 322.211 384.928C321.683 383.872 321.419 382.664 321.419 381.304ZM331.883 381.352C331.883 380.536 331.723 379.84 331.403 379.264C331.083 378.672 330.651 378.224 330.107 377.92C329.563 377.6 328.979 377.44 328.355 377.44C327.731 377.44 327.155 377.592 326.627 377.896C326.099 378.2 325.667 378.648 325.331 379.24C325.011 379.816 324.851 380.504 324.851 381.304C324.851 382.104 325.011 382.808 325.331 383.416C325.667 384.008 326.099 384.464 326.627 384.784C327.171 385.104 327.747 385.264 328.355 385.264C328.979 385.264 329.563 385.112 330.107 384.808C330.651 384.488 331.083 384.04 331.403 383.464C331.723 382.872 331.883 382.168 331.883 381.352ZM343.157 388.216C342.069 388.216 341.093 388.024 340.229 387.64C339.365 387.24 338.677 386.704 338.165 386.032C337.669 385.36 337.397 384.616 337.349 383.8H340.733C340.797 384.312 341.045 384.736 341.477 385.072C341.925 385.408 342.477 385.576 343.133 385.576C343.773 385.576 344.269 385.448 344.621 385.192C344.989 384.936 345.173 384.608 345.173 384.208C345.173 383.776 344.949 383.456 344.501 383.248C344.069 383.024 343.373 382.784 342.413 382.528C341.421 382.288 340.605 382.04 339.965 381.784C339.341 381.528 338.797 381.136 338.333 380.608C337.885 380.08 337.661 379.368 337.661 378.472C337.661 377.736 337.869 377.064 338.285 376.456C338.717 375.848 339.325 375.368 340.109 375.016C340.909 374.664 341.845 374.488 342.917 374.488C344.501 374.488 345.765 374.888 346.709 375.688C347.653 376.472 348.173 377.536 348.269 378.88H345.053C345.005 378.352 344.781 377.936 344.381 377.632C343.997 377.312 343.477 377.152 342.821 377.152C342.213 377.152 341.741 377.264 341.405 377.488C341.085 377.712 340.925 378.024 340.925 378.424C340.925 378.872 341.149 379.216 341.597 379.456C342.045 379.68 342.741 379.912 343.685 380.152C344.645 380.392 345.437 380.64 346.061 380.896C346.685 381.152 347.221 381.552 347.669 382.096C348.133 382.624 348.373 383.328 348.389 384.208C348.389 384.976 348.173 385.664 347.741 386.272C347.325 386.88 346.717 387.36 345.917 387.712C345.133 388.048 344.213 388.216 343.157 388.216ZM363.027 381.064C363.027 381.544 362.995 381.976 362.931 382.36H353.211C353.291 383.32 353.627 384.072 354.219 384.616C354.811 385.16 355.539 385.432 356.403 385.432C357.651 385.432 358.539 384.896 359.067 383.824H362.691C362.307 385.104 361.571 386.16 360.483 386.992C359.395 387.808 358.059 388.216 356.475 388.216C355.195 388.216 354.043 387.936 353.019 387.376C352.011 386.8 351.219 385.992 350.643 384.952C350.083 383.912 349.803 382.712 349.803 381.352C349.803 379.976 350.083 378.768 350.643 377.728C351.203 376.688 351.987 375.888 352.995 375.328C354.003 374.768 355.163 374.488 356.475 374.488C357.739 374.488 358.867 374.76 359.859 375.304C360.867 375.848 361.643 376.624 362.187 377.632C362.747 378.624 363.027 379.768 363.027 381.064ZM359.547 380.104C359.531 379.24 359.219 378.552 358.611 378.04C358.003 377.512 357.259 377.248 356.379 377.248C355.547 377.248 354.843 377.504 354.267 378.016C353.707 378.512 353.363 379.208 353.235 380.104H359.547ZM380.51 384.808H373.838L372.734 388H369.206L375.23 371.224H379.142L385.166 388H381.614L380.51 384.808ZM379.598 382.12L377.174 375.112L374.75 382.12H379.598ZM386.074 381.304C386.074 379.96 386.338 378.768 386.866 377.728C387.41 376.688 388.146 375.888 389.074 375.328C390.002 374.768 391.034 374.488 392.17 374.488C393.034 374.488 393.858 374.68 394.642 375.064C395.426 375.432 396.05 375.928 396.514 376.552V370.24H399.922V388H396.514V386.032C396.098 386.688 395.514 387.216 394.762 387.616C394.01 388.016 393.138 388.216 392.146 388.216C391.026 388.216 390.002 387.928 389.074 387.352C388.146 386.776 387.41 385.968 386.866 384.928C386.338 383.872 386.074 382.664 386.074 381.304ZM396.538 381.352C396.538 380.536 396.378 379.84 396.058 379.264C395.738 378.672 395.306 378.224 394.762 377.92C394.218 377.6 393.634 377.44 393.01 377.44C392.386 377.44 391.81 377.592 391.282 377.896C390.754 378.2 390.322 378.648 389.986 379.24C389.666 379.816 389.506 380.504 389.506 381.304C389.506 382.104 389.666 382.808 389.986 383.416C390.322 384.008 390.754 384.464 391.282 384.784C391.826 385.104 392.402 385.264 393.01 385.264C393.634 385.264 394.218 385.112 394.762 384.808C395.306 384.488 395.738 384.04 396.058 383.464C396.378 382.872 396.538 382.168 396.538 381.352ZM401.859 381.304C401.859 379.96 402.123 378.768 402.651 377.728C403.195 376.688 403.931 375.888 404.859 375.328C405.787 374.768 406.819 374.488 407.955 374.488C408.819 374.488 409.643 374.68 410.427 375.064C411.211 375.432 411.835 375.928 412.299 376.552V370.24H415.707V388H412.299V386.032C411.883 386.688 411.299 387.216 410.547 387.616C409.795 388.016 408.923 388.216 407.931 388.216C406.811 388.216 405.787 387.928 404.859 387.352C403.931 386.776 403.195 385.968 402.651 384.928C402.123 383.872 401.859 382.664 401.859 381.304ZM412.323 381.352C412.323 380.536 412.163 379.84 411.843 379.264C411.523 378.672 411.091 378.224 410.547 377.92C410.003 377.6 409.419 377.44 408.795 377.44C408.171 377.44 407.595 377.592 407.067 377.896C406.539 378.2 406.107 378.648 405.771 379.24C405.451 379.816 405.291 380.504 405.291 381.304C405.291 382.104 405.451 382.808 405.771 383.416C406.107 384.008 406.539 384.464 407.067 384.784C407.611 385.104 408.187 385.264 408.795 385.264C409.419 385.264 410.003 385.112 410.547 384.808C411.091 384.488 411.523 384.04 411.843 383.464C412.163 382.872 412.323 382.168 412.323 381.352ZM436.468 374.704L428.236 394.288H424.66L427.54 387.664L422.212 374.704H425.98L429.412 383.992L432.892 374.704H436.468ZM443.703 388.216C442.423 388.216 441.271 387.936 440.247 387.376C439.223 386.8 438.415 385.992 437.823 384.952C437.247 383.912 436.959 382.712 436.959 381.352C436.959 379.992 437.255 378.792 437.847 377.752C438.455 376.712 439.279 375.912 440.319 375.352C441.359 374.776 442.519 374.488 443.799 374.488C445.079 374.488 446.239 374.776 447.279 375.352C448.319 375.912 449.135 376.712 449.727 377.752C450.335 378.792 450.639 379.992 450.639 381.352C450.639 382.712 450.327 383.912 449.703 384.952C449.095 385.992 448.263 386.8 447.207 387.376C446.167 387.936 444.999 388.216 443.703 388.216ZM443.703 385.288C444.311 385.288 444.879 385.144 445.407 384.856C445.951 384.552 446.383 384.104 446.703 383.512C447.023 382.92 447.183 382.2 447.183 381.352C447.183 380.088 446.847 379.12 446.175 378.448C445.519 377.76 444.711 377.416 443.751 377.416C442.791 377.416 441.983 377.76 441.327 378.448C440.687 379.12 440.367 380.088 440.367 381.352C440.367 382.616 440.679 383.592 441.303 384.28C441.943 384.952 442.743 385.288 443.703 385.288ZM465.175 374.704V388H461.791V386.32C461.359 386.896 460.791 387.352 460.087 387.688C459.399 388.008 458.647 388.168 457.831 388.168C456.791 388.168 455.871 387.952 455.071 387.52C454.271 387.072 453.639 386.424 453.175 385.576C452.727 384.712 452.503 383.688 452.503 382.504V374.704H455.863V382.024C455.863 383.08 456.127 383.896 456.655 384.472C457.183 385.032 457.903 385.312 458.815 385.312C459.743 385.312 460.471 385.032 460.999 384.472C461.527 383.896 461.791 383.08 461.791 382.024V374.704H465.175ZM471.371 376.768C471.803 376.064 472.363 375.512 473.051 375.112C473.755 374.712 474.555 374.512 475.451 374.512V378.04H474.563C473.507 378.04 472.707 378.288 472.163 378.784C471.635 379.28 471.371 380.144 471.371 381.376V388H468.011V374.704H471.371V376.768ZM496.801 388H493.441L485.833 376.504V388H482.473V371.224H485.833L493.441 382.744V371.224H496.801V388ZM512.001 381.064C512.001 381.544 511.969 381.976 511.905 382.36H502.185C502.265 383.32 502.601 384.072 503.193 384.616C503.785 385.16 504.513 385.432 505.377 385.432C506.625 385.432 507.513 384.896 508.041 383.824H511.665C511.281 385.104 510.545 386.16 509.457 386.992C508.369 387.808 507.033 388.216 505.449 388.216C504.169 388.216 503.017 387.936 501.993 387.376C500.985 386.8 500.193 385.992 499.617 384.952C499.057 383.912 498.777 382.712 498.777 381.352C498.777 379.976 499.057 378.768 499.617 377.728C500.177 376.688 500.961 375.888 501.969 375.328C502.977 374.768 504.137 374.488 505.449 374.488C506.713 374.488 507.841 374.76 508.833 375.304C509.841 375.848 510.617 376.624 511.161 377.632C511.721 378.624 512.001 379.768 512.001 381.064ZM508.521 380.104C508.505 379.24 508.193 378.552 507.585 378.04C506.977 377.512 506.233 377.248 505.353 377.248C504.521 377.248 503.817 377.504 503.241 378.016C502.681 378.512 502.337 379.208 502.209 380.104H508.521ZM532.406 374.704L528.518 388H524.894L522.47 378.712L520.046 388H516.398L512.486 374.704H515.894L518.246 384.832L520.79 374.704H524.342L526.838 384.808L529.19 374.704H532.406ZM550.382 371.248V373.96H545.918V388H542.558V373.96H538.094V371.248H550.382ZM551.49 381.304C551.49 379.96 551.754 378.768 552.282 377.728C552.826 376.688 553.554 375.888 554.466 375.328C555.394 374.768 556.426 374.488 557.562 374.488C558.554 374.488 559.418 374.688 560.154 375.088C560.906 375.488 561.506 375.992 561.954 376.6V374.704H565.338V388H561.954V386.056C561.522 386.68 560.922 387.2 560.154 387.616C559.402 388.016 558.53 388.216 557.538 388.216C556.418 388.216 555.394 387.928 554.466 387.352C553.554 386.776 552.826 385.968 552.282 384.928C551.754 383.872 551.49 382.664 551.49 381.304ZM561.954 381.352C561.954 380.536 561.794 379.84 561.474 379.264C561.154 378.672 560.722 378.224 560.178 377.92C559.634 377.6 559.05 377.44 558.426 377.44C557.802 377.44 557.226 377.592 556.698 377.896C556.17 378.2 555.738 378.648 555.402 379.24C555.082 379.816 554.922 380.504 554.922 381.304C554.922 382.104 555.082 382.808 555.402 383.416C555.738 384.008 556.17 384.464 556.698 384.784C557.242 385.104 557.818 385.264 558.426 385.264C559.05 385.264 559.634 385.112 560.178 384.808C560.722 384.488 561.154 384.04 561.474 383.464C561.794 382.872 561.954 382.168 561.954 381.352ZM573.227 388.216C572.139 388.216 571.163 388.024 570.299 387.64C569.435 387.24 568.747 386.704 568.235 386.032C567.739 385.36 567.467 384.616 567.419 383.8H570.803C570.867 384.312 571.115 384.736 571.547 385.072C571.995 385.408 572.547 385.576 573.203 385.576C573.843 385.576 574.339 385.448 574.691 385.192C575.059 384.936 575.243 384.608 575.243 384.208C575.243 383.776 575.019 383.456 574.571 383.248C574.139 383.024 573.443 382.784 572.483 382.528C571.491 382.288 570.675 382.04 570.035 381.784C569.411 381.528 568.867 381.136 568.403 380.608C567.955 380.08 567.731 379.368 567.731 378.472C567.731 377.736 567.939 377.064 568.355 376.456C568.787 375.848 569.395 375.368 570.179 375.016C570.979 374.664 571.915 374.488 572.987 374.488C574.571 374.488 575.835 374.888 576.779 375.688C577.723 376.472 578.243 377.536 578.339 378.88H575.123C575.075 378.352 574.851 377.936 574.451 377.632C574.067 377.312 573.547 377.152 572.891 377.152C572.283 377.152 571.811 377.264 571.475 377.488C571.155 377.712 570.995 378.024 570.995 378.424C570.995 378.872 571.219 379.216 571.667 379.456C572.115 379.68 572.811 379.912 573.755 380.152C574.715 380.392 575.507 380.64 576.131 380.896C576.755 381.152 577.291 381.552 577.739 382.096C578.203 382.624 578.443 383.328 578.459 384.208C578.459 384.976 578.243 385.664 577.811 386.272C577.395 386.88 576.787 387.36 575.987 387.712C575.203 388.048 574.283 388.216 573.227 388.216ZM588.61 388L584.098 382.336V388H580.738V370.24H584.098V380.344L588.562 374.704H592.93L587.074 381.376L592.978 388H588.61Z" fill="#1F1F1F"/>
<defs>
<linearGradient id="paint0_linear_18166_2943" x1="86.195" y1="79.8688" x2="132.134" y2="120.696" gradientUnits="userSpaceOnUse">
<stop stop-color="#8AB9FD"/>
<stop offset="1" stop-color="#0056E9"/>
</linearGradient>
<linearGradient id="paint1_linear_18166_2943" x1="461.676" y1="165.175" x2="489.582" y2="189.979" gradientUnits="userSpaceOnUse">
<stop stop-color="#8AB9FD"/>
<stop offset="1" stop-color="#0056E9"/>
</linearGradient>
<linearGradient id="paint2_linear_18166_2943" x1="307.082" y1="-1.60191" x2="382.545" y2="65.4589" gradientUnits="userSpaceOnUse">
<stop stop-color="#8AB9FD"/>
<stop offset="1" stop-color="#0056E9"/>
</linearGradient>
<linearGradient id="paint3_linear_18166_2943" x1="155.835" y1="139.607" x2="166.165" y2="149.935" gradientUnits="userSpaceOnUse">
<stop stop-color="#E4816F"/>
<stop offset="1" stop-color="#E25E52"/>
</linearGradient>
<linearGradient id="paint4_linear_18166_2943" x1="486.46" y1="249.029" x2="493.026" y2="255.599" gradientUnits="userSpaceOnUse">
<stop stop-color="#E4816F"/>
<stop offset="1" stop-color="#E25E52"/>
</linearGradient>
<linearGradient id="paint5_linear_18166_2943" x1="224.374" y1="310.029" x2="230.94" y2="316.599" gradientUnits="userSpaceOnUse">
<stop stop-color="#E4816F"/>
<stop offset="1" stop-color="#E25E52"/>
</linearGradient>
<linearGradient id="paint6_linear_18166_2943" x1="447.731" y1="151.444" x2="456.309" y2="160.027" gradientUnits="userSpaceOnUse">
<stop stop-color="#8AB9FD"/>
<stop offset="1" stop-color="#0056E9"/>
</linearGradient>
<linearGradient id="paint7_linear_18166_2943" x1="401.067" y1="77.2411" x2="413.204" y2="89.3857" gradientUnits="userSpaceOnUse">
<stop stop-color="#8AB9FD"/>
<stop offset="1" stop-color="#0056E9"/>
</linearGradient>
<linearGradient id="paint8_linear_18166_2943" x1="166.264" y1="254.992" x2="223.916" y2="264.81" gradientUnits="userSpaceOnUse">
<stop stop-color="#05E389"/>
<stop offset="1" stop-color="#009A62"/>
</linearGradient>
<linearGradient id="paint9_linear_18166_2943" x1="217.347" y1="265.416" x2="227.168" y2="266.865" gradientUnits="userSpaceOnUse">
<stop stop-color="#05E389"/>
<stop offset="1" stop-color="#009A62"/>
</linearGradient>
<linearGradient id="paint10_linear_18166_2943" x1="228.355" y1="132.078" x2="289.462" y2="192.777" gradientUnits="userSpaceOnUse">
<stop stop-color="#8AB9FD"/>
<stop offset="1" stop-color="#0056E9"/>
</linearGradient>
<linearGradient id="paint11_linear_18166_2943" x1="245.556" y1="124.114" x2="256.556" y2="135.04" gradientUnits="userSpaceOnUse">
<stop stop-color="#8AB9FD"/>
<stop offset="1" stop-color="#0056E9"/>
</linearGradient>
<linearGradient id="paint12_linear_18166_2943" x1="130.195" y1="274.12" x2="146.547" y2="333.766" gradientUnits="userSpaceOnUse">
<stop stop-color="#8AB9FD"/>
<stop offset="1" stop-color="#0056E9"/>
</linearGradient>
<linearGradient id="paint13_linear_18166_2943" x1="143.758" y1="275.31" x2="146.7" y2="286.042" gradientUnits="userSpaceOnUse">
<stop stop-color="#8AB9FD"/>
<stop offset="1" stop-color="#0056E9"/>
</linearGradient>
<linearGradient id="paint14_linear_18166_2943" x1="339.543" y1="278.759" x2="267.11" y2="151.897" gradientUnits="userSpaceOnUse">
<stop stop-color="#E6832C"/>
<stop offset="1" stop-color="#E9A347"/>
</linearGradient>
<linearGradient id="paint15_linear_18166_2943" x1="291.76" y1="325.031" x2="291.76" y2="284.003" gradientUnits="userSpaceOnUse">
<stop stop-color="#53B0B1"/>
<stop offset="1" stop-color="#6ACAD8"/>
</linearGradient>
<linearGradient id="paint16_linear_18166_2943" x1="415.602" y1="326.538" x2="415.602" y2="303.535" gradientUnits="userSpaceOnUse">
<stop stop-color="#53B0B1"/>
<stop offset="1" stop-color="#6ACAD8"/>
</linearGradient>
<linearGradient id="paint17_linear_18166_2943" x1="137.088" y1="241.114" x2="364.693" y2="241.114" gradientUnits="userSpaceOnUse">
<stop stop-color="#8AB9FD"/>
<stop offset="1" stop-color="#0056E9"/>
</linearGradient>
<linearGradient id="paint18_linear_18166_2943" x1="137.085" y1="168.379" x2="364.682" y2="168.379" gradientUnits="userSpaceOnUse">
<stop stop-color="#8AB9FD"/>
<stop offset="1" stop-color="#0056E9"/>
</linearGradient>
<linearGradient id="paint19_linear_18166_2943" x1="137.083" y1="120.438" x2="364.681" y2="120.438" gradientUnits="userSpaceOnUse">
<stop stop-color="#8AB9FD"/>
<stop offset="1" stop-color="#0056E9"/>
</linearGradient>
<linearGradient id="paint20_linear_18166_2943" x1="137.083" y1="80.9895" x2="364.68" y2="80.9895" gradientUnits="userSpaceOnUse">
<stop stop-color="#8AB9FD"/>
<stop offset="1" stop-color="#0056E9"/>
</linearGradient>
<linearGradient id="paint21_linear_18166_2943" x1="137.082" y1="94.9729" x2="364.688" y2="94.9729" gradientUnits="userSpaceOnUse">
<stop stop-color="#8AB9FD"/>
<stop offset="1" stop-color="#0056E9"/>
</linearGradient>
<linearGradient id="paint22_linear_18166_2943" x1="362.799" y1="116.595" x2="397.324" y2="167.831" gradientUnits="userSpaceOnUse">
<stop stop-color="#FFCBCA"/>
<stop offset="1" stop-color="#E994A8"/>
</linearGradient>
<linearGradient id="paint23_linear_18166_2943" x1="362.342" y1="115.325" x2="373.725" y2="137.498" gradientUnits="userSpaceOnUse">
<stop stop-color="#FFCBCA" stop-opacity="0.6"/>
<stop offset="1" stop-color="#E994A8"/>
</linearGradient>
<linearGradient id="paint24_linear_18166_2943" x1="491.869" y1="316.035" x2="472.613" y2="298.48" gradientUnits="userSpaceOnUse">
<stop stop-color="#FFCBCA"/>
<stop offset="1" stop-color="#E994A8"/>
</linearGradient>
<linearGradient id="paint25_linear_18166_2943" x1="377.805" y1="323.901" x2="386.227" y2="299.162" gradientUnits="userSpaceOnUse">
<stop stop-color="#FFCBCA"/>
<stop offset="1" stop-color="#E994A8"/>
</linearGradient>
<linearGradient id="paint26_linear_18166_2943" x1="345.904" y1="293.095" x2="400.963" y2="208.033" gradientUnits="userSpaceOnUse">
<stop stop-color="#FFCBCA"/>
<stop offset="1" stop-color="#E994A8"/>
</linearGradient>
<linearGradient id="paint27_linear_18166_2943" x1="486.853" y1="297.143" x2="486.412" y2="324.905" gradientUnits="userSpaceOnUse">
<stop stop-color="#E4816F"/>
<stop offset="1" stop-color="#E25E52"/>
</linearGradient>
<linearGradient id="paint28_linear_18166_2943" x1="466.14" y1="319.207" x2="506.877" y2="319.207" gradientUnits="userSpaceOnUse">
<stop stop-color="#E4816F"/>
<stop offset="1" stop-color="#E25E52"/>
</linearGradient>
<linearGradient id="paint29_linear_18166_2943" x1="373.231" y1="302.896" x2="373.231" y2="326.444" gradientUnits="userSpaceOnUse">
<stop stop-color="#E4816F"/>
<stop offset="1" stop-color="#E25E52"/>
</linearGradient>
<linearGradient id="paint30_linear_18166_2943" x1="373.224" y1="319.973" x2="373.224" y2="328.093" gradientUnits="userSpaceOnUse">
<stop stop-color="#E4816F"/>
<stop offset="1" stop-color="#E25E52"/>
</linearGradient>
<linearGradient id="paint31_linear_18166_2943" x1="379.731" y1="142.416" x2="405.458" y2="183.482" gradientUnits="userSpaceOnUse">
<stop stop-color="#FFCBCA"/>
<stop offset="1" stop-color="#E994A8"/>
</linearGradient>
<linearGradient id="paint32_linear_18166_2943" x1="429.808" y1="41.7218" x2="462.952" y2="74.8865" gradientUnits="userSpaceOnUse">
<stop stop-color="#8AB9FD"/>
<stop offset="1" stop-color="#0056E9"/>
</linearGradient>
<linearGradient id="paint33_linear_18166_2943" x1="429.808" y1="41.7218" x2="462.952" y2="74.8865" gradientUnits="userSpaceOnUse">
<stop stop-color="#8AB9FD"/>
<stop offset="1" stop-color="#0056E9"/>
</linearGradient>
<clipPath id="clip0_18166_2943">
<rect width="423" height="336" fill="white" transform="translate(85.5)"/>
</clipPath>
</defs>
</svg>
