<svg width="43" height="43" viewBox="0 0 43 43" fill="none" xmlns="http://www.w3.org/2000/svg">
<circle cx="21.5" cy="21.5" r="21.5" fill="#60E5AE"/>
<path d="M31.9989 25.5V28.5C31.9989 29.88 30.8789 31 29.4989 31H22.3589C21.4689 31 21.0289 29.93 21.6489 29.3L27.5189 23.3C27.7089 23.11 27.9689 23 28.2289 23H29.4989C30.8789 23 31.9989 24.12 31.9989 25.5Z" fill="#1F1F1F"/>
<path d="M28.3722 20.29L25.6622 23L23.2022 25.45C22.5722 26.08 21.4922 25.64 21.4922 24.75C21.4922 21.54 21.4922 16.26 21.4922 16.26C21.4922 15.99 21.6022 15.74 21.7822 15.55L22.7022 14.63C23.6822 13.65 25.2622 13.65 26.2422 14.63L28.3622 16.75C29.3522 17.73 29.3522 19.31 28.3722 20.29Z" fill="#1F1F1F"/>
<path d="M17.5 11H14.5C13 11 12 12 12 13.5V27C12 27.27 12.03 27.54 12.08 27.8C12.11 27.93 12.14 28.06 12.18 28.19C12.23 28.34 12.28 28.49 12.34 28.63C12.35 28.64 12.35 28.65 12.35 28.65C12.36 28.65 12.36 28.65 12.35 28.66C12.49 28.94 12.65 29.21 12.84 29.46C12.95 29.59 13.06 29.71 13.17 29.83C13.28 29.95 13.4 30.05 13.53 30.15L13.54 30.16C13.79 30.35 14.06 30.51 14.34 30.65C14.35 30.64 14.35 30.64 14.35 30.65C14.5 30.72 14.65 30.77 14.81 30.82C14.94 30.86 15.07 30.89 15.2 30.92C15.46 30.97 15.73 31 16 31C16.41 31 16.83 30.94 17.22 30.81C17.33 30.77 17.44 30.73 17.55 30.68C17.9 30.54 18.24 30.34 18.54 30.08C18.63 30.01 18.73 29.92 18.82 29.83L18.86 29.79C19.56 29.07 20 28.08 20 27V13.5C20 12 19 11 17.5 11ZM16 28.5C15.17 28.5 14.5 27.83 14.5 27C14.5 26.17 15.17 25.5 16 25.5C16.83 25.5 17.5 26.17 17.5 27C17.5 27.83 16.83 28.5 16 28.5Z" fill="#1F1F1F"/>
</svg>
